<svg width="32" height="32" viewBox="0 0 32 32" fill="none" xmlns="http://www.w3.org/2000/svg">
<circle cx="16" cy="16" r="16" fill="url(#paint0_linear_244_368)"/>
<mask id="mask0_244_368" style="mask-type:luminance" maskUnits="userSpaceOnUse" x="0" y="0" width="32" height="32">
<circle cx="16" cy="16" r="16" fill="white"/>
</mask>
<g mask="url(#mask0_244_368)">
<path d="M21.557 14.4042C21.4809 14.2388 21.3154 14.1327 21.1333 14.1326H16.1315L16.9192 10.9788C16.9706 10.7693 16.8718 10.5519 16.6801 10.4529C16.4883 10.3539 16.2538 10.3993 16.1128 10.5626L10.5127 17.096C10.3944 17.2343 10.3673 17.4288 10.4432 17.5942C10.5192 17.7596 10.6844 17.8657 10.8664 17.866H15.8683L15.0805 21.0198C15.0283 21.2298 15.1272 21.448 15.3194 21.5472C15.3854 21.5817 15.4587 21.5997 15.5332 21.5995C15.6693 21.5992 15.7985 21.5395 15.8869 21.4361L21.487 14.9026C21.6056 14.7644 21.633 14.5698 21.557 14.4042Z" fill="white"/>
</g>
<defs>
<linearGradient id="paint0_linear_244_368" x1="12.501" y1="38.8954" x2="39.0331" y2="20.2948" gradientUnits="userSpaceOnUse">
<stop stop-color="#6366F1"/>
<stop offset="1" stop-color="#A5B4FC"/>
</linearGradient>
</defs>
</svg>
