<svg width="22" height="15" viewBox="0 0 22 15" fill="none" xmlns="http://www.w3.org/2000/svg">
<path fill-rule="evenodd" clip-rule="evenodd" d="M0.171875 7.5C1.89405 3.11 6.14473 0 11.1221 0C16.0995 0 20.3502 3.11 22.0723 7.5C20.3502 11.89 16.0995 15 11.1221 15C6.14473 15 1.89405 11.89 0.171875 7.5ZM19.9022 7.5C18.2597 4.13 14.895 2 11.1221 2C7.34925 2 3.98454 4.13 2.34201 7.5C3.98454 10.87 7.34925 13 11.1221 13C14.895 13 18.2597 10.87 19.9022 7.5ZM11.1221 5C12.4959 5 13.6108 6.12 13.6108 7.5C13.6108 8.88 12.4959 10 11.1221 10C9.74835 10 8.63341 8.88 8.63341 7.5C8.63341 6.12 9.74835 5 11.1221 5ZM6.64246 7.5C6.64246 5.02 8.65332 3 11.1221 3C13.5909 3 15.6017 5.02 15.6017 7.5C15.6017 9.98 13.5909 12 11.1221 12C8.65332 12 6.64246 9.98 6.64246 7.5Z" fill="#4D4D4D"/>
</svg>
