<svg width="27" height="27" viewBox="0 0 27 27" fill="none" xmlns="http://www.w3.org/2000/svg">
<path d="M17.006 0C15.427 0.00141576 13.8708 0.376228 12.4644 1.09383C11.058 1.81144 9.84125 2.85149 8.91348 4.12907C7.98572 5.40666 7.37325 6.88555 7.1261 8.445C6.87895 10.0044 7.00411 11.6002 7.49137 13.1021L0.292603 20.2996C0.199736 20.3926 0.126096 20.5029 0.0758905 20.6244C0.0256848 20.7458 -0.000103022 20.8759 3.09307e-07 21.0074V26.0091C3.09307e-07 26.2744 0.105394 26.5289 0.292996 26.7165C0.480598 26.9041 0.735041 27.0095 1.00035 27.0095H6.0021C6.26741 27.0095 6.52185 26.9041 6.70946 26.7165C6.89706 26.5289 7.00245 26.2744 7.00245 26.0091V24.0084H9.00315C9.26846 24.0084 9.5229 23.903 9.71051 23.7154C9.89811 23.5278 10.0035 23.2734 10.0035 23.0081V21.0074H12.0042C12.1356 21.0075 12.2657 20.9817 12.3872 20.9315C12.5086 20.8813 12.619 20.8076 12.7119 20.7148L13.9074 19.5181C15.2823 19.9645 16.7375 20.1076 18.173 19.9376C19.6085 19.7676 20.9902 19.2884 22.2227 18.5332C23.4553 17.778 24.5096 16.7647 25.3129 15.5629C26.1163 14.3612 26.6496 12.9996 26.8763 11.572C27.1029 10.1443 27.0175 8.68448 26.6258 7.29302C26.2341 5.90156 25.5455 4.61152 24.6075 3.51171C23.6694 2.41191 22.5041 1.52847 21.1918 0.922235C19.8796 0.316 18.4515 0.00136637 17.006 0ZM17.006 18.0063C15.9933 18.008 14.9896 17.8166 14.0487 17.4424C13.8646 17.3625 13.6608 17.3398 13.4636 17.3772C13.2665 17.4147 13.0852 17.5106 12.9433 17.6524L11.5903 19.0067H9.00315C8.73784 19.0067 8.4834 19.112 8.2958 19.2996C8.10819 19.4872 8.0028 19.7417 8.0028 20.007V22.0077H6.0021C5.73679 22.0077 5.48235 22.1131 5.29475 22.3007C5.10714 22.4883 5.00175 22.7427 5.00175 23.0081V25.0088H2.0007V21.4212L9.35703 14.0662C9.49886 13.9242 9.59474 13.7429 9.6322 13.5458C9.66967 13.3487 9.64698 13.1449 9.5671 12.9608C8.93449 11.37 8.82866 9.61835 9.26515 7.96302C9.70164 6.30768 10.6574 4.83593 11.9922 3.76395C13.3269 2.69196 14.9702 2.07624 16.6808 2.00721C18.3913 1.93818 20.0789 2.41949 21.4956 3.38044C22.9124 4.34138 23.9837 5.73133 24.5522 7.34611C25.1206 8.96089 25.1563 10.7154 24.6539 12.352C24.1515 13.9885 23.1376 15.4208 21.7611 16.4386C20.3845 17.4563 18.7179 18.0058 17.006 18.0063ZM21.0074 7.50263C21.0074 7.7994 20.9193 8.08951 20.7545 8.33627C20.5896 8.58303 20.3552 8.77536 20.0811 8.88893C19.8069 9.0025 19.5052 9.03222 19.2141 8.97432C18.923 8.91642 18.6556 8.77351 18.4458 8.56366C18.2359 8.35381 18.093 8.08644 18.0351 7.79536C17.9772 7.50429 18.007 7.20258 18.1205 6.9284C18.2341 6.65421 18.4264 6.41986 18.6732 6.25498C18.9199 6.0901 19.2101 6.0021 19.5068 6.0021C19.9048 6.0021 20.2865 6.16019 20.5679 6.44159C20.8493 6.723 21.0074 7.10466 21.0074 7.50263Z" fill="#014C8C"/>
<circle cx="19.5" cy="7.5" r="2.5" fill="#014C8C"/>
</svg>
