<svg width="38" height="29" viewBox="0 0 38 29" fill="none" xmlns="http://www.w3.org/2000/svg">
<path d="M9.83325 8.57169L18.6666 15.1967L27.4999 8.57169" stroke="#014C8C" stroke-width="1.5" stroke-linecap="round" stroke-linejoin="round"/>
<path d="M1 23.7143V4.78571C1 3.78168 1.37226 2.81877 2.03489 2.10881C2.69752 1.39885 3.59624 1 4.53333 1H32.8C33.7371 1 34.6358 1.39885 35.2984 2.10881C35.9611 2.81877 36.3333 3.78168 36.3333 4.78571V23.7143C36.3333 24.7183 35.9611 25.6812 35.2984 26.3912C34.6358 27.1011 33.7371 27.5 32.8 27.5H4.53333C3.59624 27.5 2.69752 27.1011 2.03489 26.3912C1.37226 25.6812 1 24.7183 1 23.7143Z" stroke="#014C8C" stroke-width="1.5"/>
</svg>
