<svg class="svg-icon" style="width: 1em; height: 1em;vertical-align: middle;fill: currentColor;overflow: hidden;" viewBox="0 0 1024 1024" version="1.1" xmlns="http://www.w3.org/2000/svg"><path d="M657.6 456.8c-8.9 0-16.1-7.2-16.1-16.1 0-1.7 0.3-3.3 0.7-4.8V332c0-71-57.7-128.7-128.7-128.7S384.7 261.1 384.7 332v107.9c0 8.9-7.2 16.1-16.1 16.1s-16.1-7.2-16.1-16.1V332c0-88.8 72.2-161 161-161s161 72.2 161 161v107.9c-0.1 9.3-7.6 16.9-16.9 16.9zM513.5 711c-8.9 0-16.1-7.2-16.1-16.1V582.3c0-8.9 7.2-16.1 16.1-16.1 8.9 0 16.1 7.2 16.1 16.1v112.6c0 8.9-7.2 16.1-16.1 16.1z" fill="#EF7F1A" /><path d="M679.5 852.7H347.4c-68.1 0-123.6-55.4-123.6-123.6v-181c0-68.1 55.4-123.6 123.6-123.6h332.1c68.1 0 123.6 55.4 123.6 123.6v181c0 68.1-55.4 123.6-123.6 123.6zM347.4 456.8c-50.4 0-91.3 41-91.3 91.3v181c0 50.4 41 91.3 91.3 91.3h332.1c50.4 0 91.3-41 91.3-91.3v-181c0-50.4-41-91.3-91.3-91.3H347.4z" fill="#333333" /></svg>