<svg width="25" height="25" viewBox="0 0 25 25" fill="none" xmlns="http://www.w3.org/2000/svg">
<path d="M12.3114 0.5C9.17507 0.538254 6.17781 1.81482 3.9599 4.05702C1.74198 6.29921 0.479246 9.32928 0.441406 12.5C0.479246 15.6707 1.74198 18.7008 3.9599 20.943C6.17781 23.1852 9.17507 24.4617 12.3114 24.5C15.4478 24.4617 18.4451 23.1852 20.663 20.943C22.8809 18.7008 24.1436 15.6707 24.1815 12.5C24.1436 9.32928 22.8809 6.29921 20.663 4.05702C18.4451 1.81482 15.4478 0.538254 12.3114 0.5ZM19.0943 12.5C19.0943 12.9734 18.7106 13.3571 18.2372 13.3571H14.1593C13.607 13.3571 13.1593 13.8049 13.1593 14.3571V18.5093C13.1593 18.9775 12.7797 19.3571 12.3114 19.3571C11.8432 19.3571 11.4636 18.9775 11.4636 18.5093V14.3571C11.4636 13.8049 11.0159 13.3571 10.4636 13.3571H6.38571C5.91232 13.3571 5.52856 12.9734 5.52856 12.5C5.52856 12.0266 5.91232 11.6429 6.38571 11.6429H10.4636C11.0159 11.6429 11.4636 11.1951 11.4636 10.6429V6.49072C11.4636 6.02246 11.8432 5.64286 12.3114 5.64286C12.7797 5.64286 13.1593 6.02246 13.1593 6.49072V10.6429C13.1593 11.1951 13.607 11.6429 14.1593 11.6429H18.2372C18.7106 11.6429 19.0943 12.0266 19.0943 12.5Z" fill="#6366F1"/>
</svg>
