<svg width="58" height="58" viewBox="0 0 58 58" fill="none" xmlns="http://www.w3.org/2000/svg">
<g clip-path="url(#clip0_888_3171)">
<path d="M0 0H58V58H0V0Z" fill="#5537DA"/>
<path d="M0 0H58V58H0V0Z" fill="url(#paint0_linear_888_3171)"/>
<path d="M39.4145 45.648L31.921 41.1347V32.154L39.4145 27.6363L46.9907 32.1584V41.1194L39.4145 45.648ZM34.7634 32.5909L39.4569 35.385L44.1483 32.5887L39.4569 29.81L34.7634 32.5909ZM40.3931 42.8583L45.1163 40.0446V34.0939L40.3931 37.0299V42.8583ZM33.7954 40.0599L38.5186 42.9129V37.0845L33.7954 34.19V40.0599ZM25.5669 26.5331C23.8202 26.5331 22.3242 25.8909 21.0788 24.6063C19.8334 23.3218 19.2114 21.7795 19.2128 19.9795C19.2128 18.1765 19.8348 16.6327 21.0788 15.3482C22.3228 14.0666 23.8188 13.4258 25.5669 13.4258C27.315 13.4258 28.811 14.0666 30.055 15.3482C31.299 16.6327 31.921 18.1765 31.921 19.9795C31.921 21.781 31.299 23.3233 30.055 24.6063C28.811 25.8894 27.315 26.5317 25.5669 26.5331ZM10.7407 42.3275V38.7339C10.7407 37.729 10.9864 36.8595 11.4778 36.1255C11.9692 35.3915 12.6632 34.8075 13.5598 34.3735C15.2782 33.5113 17.0503 32.8013 18.8761 32.2436C20.7004 31.6858 22.9307 31.4069 25.5669 31.4069H26.0646C26.1945 31.4069 26.352 31.4156 26.537 31.4331C26.3901 31.8088 26.2736 32.1766 26.1875 32.5363L25.9418 33.5914H25.5669C23.1961 33.5914 21.1289 33.8427 19.3653 34.3451C17.6017 34.8461 16.0033 35.4942 14.5701 36.2894C13.9262 36.6389 13.48 37.0059 13.2315 37.3904C12.983 37.7734 12.8587 38.2212 12.8587 38.7339V40.1451H26.2023C26.3054 40.4903 26.4318 40.8616 26.5814 41.2592C26.7311 41.6539 26.8956 42.0107 27.0749 42.3297L10.7407 42.3275ZM25.5669 24.3486C26.7318 24.3486 27.7294 23.9204 28.5597 23.064C29.3899 22.2077 29.8044 21.1795 29.8029 19.9795C29.8029 18.7779 29.3885 17.749 28.5597 16.8927C27.7308 16.0363 26.7332 15.6089 25.5669 15.6103C24.402 15.6103 23.4051 16.0378 22.5762 16.8927C21.7474 17.7476 21.3323 18.7765 21.3308 19.9795C21.3308 21.181 21.746 22.2092 22.5762 23.064C23.4065 23.9189 24.4034 24.3471 25.5669 24.3486Z" fill="white"/>
</g>
<defs>
<linearGradient id="paint0_linear_888_3171" x1="58" y1="15.7083" x2="-9.66667" y2="35.0417" gradientUnits="userSpaceOnUse">
<stop offset="0.205" stop-color="#DD5CE5" stop-opacity="0"/>
<stop offset="1" stop-color="#DD5CE5" stop-opacity="0.25"/>
</linearGradient>
<clipPath id="clip0_888_3171">
<rect width="58" height="58" rx="4" fill="white"/>
</clipPath>
</defs>
</svg>
