<svg width="35" height="30" viewBox="0 0 35 30" fill="none" xmlns="http://www.w3.org/2000/svg">
<path d="M27.076 29.5L20 25.368V17.146L27.076 13.01L34.23 17.15V25.354L27.076 29.5ZM22.684 17.546L27.116 20.104L31.546 17.544L27.116 15L22.684 17.546ZM28 26.946L32.46 24.37V18.922L28 21.61V26.946ZM21.77 24.384L26.23 26.996V21.66L21.77 19.01V24.384ZM14 12C12.3507 12 10.938 11.412 9.762 10.236C8.586 9.06 7.99867 7.648 8 6C8 4.34933 8.58733 2.936 9.762 1.76C10.9367 0.586666 12.3493 0 14 0C15.6507 0 17.0633 0.586666 18.238 1.76C19.4127 2.936 20 4.34933 20 6C20 7.64933 19.4127 9.06133 18.238 10.236C17.0633 11.4107 15.6507 11.9987 14 12ZM0 26.46V23.17C0 22.25 0.232 21.454 0.696 20.782C1.16 20.11 1.81533 19.5753 2.662 19.178C4.28467 18.3887 5.958 17.7387 7.682 17.228C9.40467 16.7173 11.5107 16.462 14 16.462H14.47C14.5927 16.462 14.7413 16.47 14.916 16.486C14.7773 16.83 14.6673 17.1667 14.586 17.496L14.354 18.462H14C11.7613 18.462 9.80933 18.692 8.144 19.152C6.47867 19.6107 4.96933 20.204 3.616 20.932C3.008 21.252 2.58667 21.588 2.352 21.94C2.11733 22.2907 2 22.7007 2 23.17V24.462H14.6C14.6973 24.778 14.8167 25.118 14.958 25.482C15.0993 25.8433 15.2547 26.17 15.424 26.462L0 26.46ZM14 10C15.1 10 16.042 9.608 16.826 8.824C17.61 8.04 18.0013 7.09867 18 6C18 4.9 17.6087 3.958 16.826 3.174C16.0433 2.39 15.1013 1.99867 14 2C12.9 2 11.9587 2.39133 11.176 3.174C10.3933 3.95667 10.0013 4.89867 10 6C10 7.1 10.392 8.04133 11.176 8.824C11.96 9.60667 12.9013 9.99867 14 10Z" fill="#6366F1"/>
</svg>
