<svg width="63" height="64" viewBox="0 0 63 64" fill="none" xmlns="http://www.w3.org/2000/svg">
<path d="M34.7912 0.504401C36.1027 0.698017 37.4273 0.821228 38.7169 1.10285C47.9935 3.12702 55.0012 8.33265 59.1586 16.887C64.387 27.6546 63.4777 38.1671 56.4438 47.8831C51.7618 54.3516 45.2656 58.0875 37.4098 59.3768C36.2644 59.5661 35.1016 59.6497 33.9169 59.7861C34.7081 60.5386 35.5125 61.2954 36.3169 62.0567C35.683 62.6551 35.2152 63.0952 34.7868 63.5C33.248 61.9599 31.648 60.3537 30.0655 58.7696C31.6174 57.2163 33.2087 55.6233 34.8305 53.9996C35.2109 54.4397 35.6349 54.9325 36.1245 55.4957C35.4994 56.0854 34.765 56.7718 33.9125 57.5683C45.3268 57.5111 58.022 48.6312 60.0285 33.8635C62.2143 17.745 50.2317 3.50985 34.4983 2.63858C26.2359 2.18094 19.1102 5.00157 13.3353 10.9685C7.55603 16.9442 5.13852 24.218 5.65 32.5918C4.98989 32.6667 4.35601 32.7371 3.65655 32.8207C3.6172 32.5522 3.56474 32.319 3.55163 32.0858C2.79096 18.8715 10.4938 6.96853 22.8392 2.31295C25.296 1.38447 27.8403 0.816826 30.4633 0.610009C30.6425 0.596808 30.8174 0.539603 30.9923 0.5C32.26 0.5044 33.5234 0.504401 34.7912 0.504401Z" fill="black"/>
<path d="M0.5 35.754C4.65762 35.754 8.77114 35.754 12.9332 35.754C12.9332 36.2152 12.9332 36.6468 12.9332 37.2012C13.5725 36.8076 14.128 36.4903 14.6571 36.1348C15.3449 35.6736 16.0944 35.4958 16.9277 35.5001C21.0897 35.5085 25.2517 35.5043 29.4137 35.5043C31.4507 35.5043 32.985 36.486 33.589 38.1617C34.1842 39.8205 33.611 41.5512 32.0679 42.7572C31.993 42.8165 31.9224 42.8799 31.7637 43.0238C33.3597 43.2312 34.7618 43.6755 36.3578 43.1761C40.0128 42.0336 43.7339 41.0815 47.4286 40.0617C49.2804 39.5497 51.1762 40.3241 52.0536 41.9236C52.878 43.4258 52.543 45.2792 51.1938 46.3371C50.775 46.6672 50.2547 46.9253 49.7389 47.0819C41.6926 49.5108 33.6419 51.9101 25.5912 54.3263C24.683 54.5972 23.8364 54.5506 22.9502 54.1909C19.8243 52.9215 16.6852 51.6858 13.5504 50.4418C13.3829 50.3741 13.2109 50.3233 12.9552 50.2344C12.9552 51.0723 12.9552 51.8466 12.9552 52.6591C8.77114 52.6591 4.66203 52.6591 0.5 52.6591C0.5 47.0396 0.5 41.42 0.5 35.754ZM22.3639 41.6993C22.6504 41.6993 22.8753 41.6993 23.1002 41.6993C25.2429 41.6993 27.3856 41.712 29.5284 41.6951C30.7849 41.6866 31.6711 40.8403 31.6667 39.7063C31.6667 38.5722 30.7761 37.7301 29.5195 37.7259C25.2341 37.7174 20.9486 37.7174 16.6631 37.7301C16.4074 37.7301 16.1296 37.7936 15.9048 37.9078C15.0318 38.3564 14.1721 38.8176 13.33 39.3127C13.1448 39.4227 12.964 39.6978 12.964 39.8967C12.9376 42.4652 12.9376 45.038 12.964 47.6066C12.964 47.7928 13.1713 48.0763 13.352 48.1525C16.8703 49.5954 20.3931 51.0215 23.929 52.4221C24.2024 52.5322 24.586 52.5449 24.8725 52.4602C32.8747 50.1032 40.8681 47.7336 48.8615 45.3554C50.0034 45.0169 50.5104 44.2002 50.215 43.2565C49.8844 42.1987 48.9717 41.7501 47.7945 42.0759C43.8045 43.1804 39.8188 44.3017 35.8155 45.3766C35.1806 45.5458 34.4664 45.6347 33.8182 45.5458C30.948 45.1396 28.0911 44.6572 25.2297 44.2002C24.2024 44.0352 23.1751 43.8744 22.1566 43.7093C22.2272 43.0154 22.2933 42.3975 22.3639 41.6993ZM10.8389 37.7597C10.1291 37.7597 9.48098 37.7597 8.77114 37.7597C8.77114 39.7401 8.77114 41.6909 8.77114 43.6543C8.04808 43.6543 7.38674 43.6543 6.66368 43.6543C6.66368 41.6612 6.66368 39.7105 6.66368 37.7513C5.27046 37.7513 3.93455 37.7513 2.57219 37.7513C2.57219 42.0717 2.57219 46.3668 2.57219 50.6533C5.35423 50.6533 8.08335 50.6533 10.8389 50.6533C10.8389 46.3456 10.8389 42.0802 10.8389 37.7597Z" fill="black"/>
<path d="M14.5 32.4859C14.5 25.7847 14.5 19.1588 14.5 12.5C27.1473 12.5 39.7633 12.5 52.4597 12.5C52.4687 12.7306 52.4866 12.9612 52.4866 13.1918C52.4866 19.3706 52.4776 25.5494 52.5 31.7329C52.5 32.34 52.3435 32.5 51.771 32.5C39.5665 32.4812 27.3619 32.4859 15.1529 32.4859C14.9472 32.4859 14.746 32.4859 14.5 32.4859ZM50.3399 14.74C39.079 14.74 27.8494 14.74 16.5974 14.74C16.5974 19.9165 16.5974 25.0506 16.5974 30.2177C27.8628 30.2177 39.088 30.2177 50.3399 30.2177C50.3399 25.0365 50.3399 19.9024 50.3399 14.74Z" fill="#6366F1"/>
<path d="M8.5 45.5C8.5 46.5247 8.5 47.4927 8.5 48.5C7.83188 48.5 7.18996 48.5 6.5 48.5C6.5 47.5145 6.5 46.5291 6.5 45.5C7.14629 45.5 7.80131 45.5 8.5 45.5Z" fill="black"/>
<path d="M33.4815 26.4999C30.7423 26.4915 28.479 24.6704 28.5001 22.4894C28.5213 20.2999 30.7952 18.4916 33.5186 18.5C36.2419 18.5085 38.5105 20.338 38.5 22.519C38.4947 24.7128 36.2208 26.5126 33.4815 26.4999ZM36.004 22.5317C36.0251 21.4476 34.8935 20.5201 33.5344 20.5074C32.1754 20.4947 31.0226 21.3925 30.9961 22.4809C30.975 23.5566 32.1119 24.4925 33.4657 24.5137C34.8142 24.5307 35.9828 23.6201 36.004 22.5317Z" fill="#6366F1"/>
<path d="M23.5 25.472C23.5 26.1997 23.5 26.8326 23.5 27.5C22.1609 27.5 20.8519 27.5 19.5 27.5C19.5 26.1781 19.5 24.8649 19.5 23.5C20.1438 23.5 20.7876 23.5 21.4871 23.5C21.4871 24.1502 21.4871 24.7831 21.4871 25.472C22.1695 25.472 22.8004 25.472 23.5 25.472Z" fill="#6366F1"/>
<path d="M48.5 27.5C46.8046 27.5 45.1792 27.5 43.5 27.5C43.5 26.8398 43.5 26.1967 43.5 25.4936C44.3181 25.4936 45.1093 25.4936 45.965 25.4936C45.965 24.8076 45.965 24.1774 45.965 23.5C46.8423 23.5 47.6496 23.5 48.5 23.5C48.5 24.829 48.5 26.1367 48.5 27.5Z" fill="#6366F1"/>
<path d="M19.5 21.5C19.5 20.1391 19.5 18.8478 19.5 17.5C20.8305 17.5 22.1481 17.5 23.5 17.5C23.5 18.1348 23.5 18.7609 23.5 19.4652C22.8626 19.4652 22.2166 19.4652 21.5107 19.4652C21.5107 20.187 21.5107 20.8261 21.5107 21.5C20.8176 21.5 20.1845 21.5 19.5 21.5Z" fill="#6366F1"/>
<path d="M43.5 17.5C45.1916 17.5 46.8298 17.5 48.5 17.5C48.5 18.8406 48.5 20.1464 48.5 21.5C47.697 21.5 46.9101 21.5 46.0375 21.5C46.0375 20.8753 46.0375 20.2419 46.0375 19.5174C45.1488 19.5174 44.3405 19.5174 43.5054 19.5174C43.5 18.8102 43.5 18.1898 43.5 17.5Z" fill="#6366F1"/>
<path d="M26.5 21.5C26.5 22.1947 26.5 22.8274 26.5 23.5C25.8295 23.5 25.1791 23.5 24.5 23.5C24.5 22.8407 24.5 22.1947 24.5 21.5C25.159 21.5 25.8094 21.5 26.5 21.5Z" fill="#6366F1"/>
<path d="M40.5 21.5C41.1918 21.5 41.8343 21.5 42.5 21.5C42.5 22.1769 42.5 22.8187 42.5 23.5C41.8314 23.5 41.1802 23.5 40.5 23.5C40.5 22.8363 40.5 22.1901 40.5 21.5Z" fill="#6366F1"/>
</svg>
