<svg width="20" height="21" viewBox="0 0 20 21" fill="none" xmlns="http://www.w3.org/2000/svg">
<rect y="0.9375" width="20" height="20" rx="4" fill="#6366F1"/>
<path d="M10.0667 16.9375C8.37325 16.9375 6.93861 16.3566 5.76282 15.1949C4.58761 14.0326 4 12.6144 4 10.9401C4 9.26579 4.58761 7.84693 5.76282 6.6835C6.93861 5.5195 8.37325 4.9375 10.0667 4.9375C11.0969 4.9375 12.0612 5.1795 12.9597 5.6635C13.8587 6.1475 14.5833 6.82321 15.1333 7.69064V4.9375H16V9.42036H11.4673V8.56321H14.674C14.2227 7.70893 13.5878 7.03379 12.769 6.53779C11.9515 6.04236 11.0507 5.79464 10.0667 5.79464C8.62227 5.79464 7.39448 6.29464 6.38336 7.29464C5.37224 8.29464 4.86668 9.50893 4.86668 10.9375C4.86668 12.3661 5.37224 13.5804 6.38336 14.5804C7.39448 15.5804 8.62227 16.0804 10.0667 16.0804C11.179 16.0804 12.1829 15.7661 13.0784 15.1375C13.974 14.5089 14.6023 13.6804 14.9635 12.6518H15.883C15.5011 13.9352 14.7751 14.9704 13.705 15.7572C12.635 16.5441 11.4222 16.9375 10.0667 16.9375Z" fill="white"/>
</svg>
