<svg width="15" height="16" viewBox="0 0 15 16" fill="none" xmlns="http://www.w3.org/2000/svg">
<path d="M13.9167 2.46154H11V1.84615C11 1.35652 10.8156 0.886947 10.4874 0.540726C10.1592 0.194505 9.71413 0 9.25 0H5.75C5.28587 0 4.84075 0.194505 4.51256 0.540726C4.18437 0.886947 4 1.35652 4 1.84615V2.46154H1.08333C0.928624 2.46154 0.780251 2.52637 0.670854 2.64178C0.561458 2.75719 0.5 2.91371 0.5 3.07692C0.5 3.24013 0.561458 3.39666 0.670854 3.51207C0.780251 3.62747 0.928624 3.69231 1.08333 3.69231H1.66667V14.7692C1.66667 15.0957 1.78958 15.4087 2.00838 15.6395C2.22717 15.8703 2.52391 16 2.83333 16H12.1667C12.4761 16 12.7728 15.8703 12.9916 15.6395C13.2104 15.4087 13.3333 15.0957 13.3333 14.7692V3.69231H13.9167C14.0714 3.69231 14.2197 3.62747 14.3291 3.51207C14.4385 3.39666 14.5 3.24013 14.5 3.07692C14.5 2.91371 14.4385 2.75719 14.3291 2.64178C14.2197 2.52637 14.0714 2.46154 13.9167 2.46154ZM5.16667 1.84615C5.16667 1.68294 5.22812 1.52642 5.33752 1.41101C5.44692 1.2956 5.59529 1.23077 5.75 1.23077H9.25C9.40471 1.23077 9.55308 1.2956 9.66248 1.41101C9.77188 1.52642 9.83333 1.68294 9.83333 1.84615V2.46154H5.16667V1.84615ZM12.1667 14.7692H2.83333V3.69231H12.1667V14.7692ZM6.33333 6.76923V11.6923C6.33333 11.8555 6.27187 12.012 6.16248 12.1275C6.05308 12.2429 5.90471 12.3077 5.75 12.3077C5.59529 12.3077 5.44692 12.2429 5.33752 12.1275C5.22812 12.012 5.16667 11.8555 5.16667 11.6923V6.76923C5.16667 6.60602 5.22812 6.4495 5.33752 6.33409C5.44692 6.21868 5.59529 6.15385 5.75 6.15385C5.90471 6.15385 6.05308 6.21868 6.16248 6.33409C6.27187 6.4495 6.33333 6.60602 6.33333 6.76923ZM9.83333 6.76923V11.6923C9.83333 11.8555 9.77188 12.012 9.66248 12.1275C9.55308 12.2429 9.40471 12.3077 9.25 12.3077C9.09529 12.3077 8.94692 12.2429 8.83752 12.1275C8.72812 12.012 8.66667 11.8555 8.66667 11.6923V6.76923C8.66667 6.60602 8.72812 6.4495 8.83752 6.33409C8.94692 6.21868 9.09529 6.15385 9.25 6.15385C9.40471 6.15385 9.55308 6.21868 9.66248 6.33409C9.77188 6.4495 9.83333 6.60602 9.83333 6.76923Z" fill="#B4BECE"/>
</svg>
