<svg width="77" height="50" viewBox="0 0 77 50" fill="none" xmlns="http://www.w3.org/2000/svg">
<path d="M38.5029 0.502054C49.1231 0.502054 59.7433 0.497939 70.3634 0.504096C73.4363 0.506149 75.7508 2.35748 76.3135 5.25966C76.4103 5.75841 76.4124 6.27973 76.4124 6.79079C76.4165 18.925 76.4186 31.0591 76.4145 43.1933C76.4124 47.0458 73.9536 49.4985 70.1099 49.4985C49.0242 49.5005 27.9363 49.5005 6.85056 49.4985C2.99449 49.4985 0.587276 47.1094 0.587276 43.2672C0.581093 31.1063 0.583154 18.9475 0.587276 6.7867C0.589337 2.88086 2.97388 0.502052 6.87323 0.5C17.4171 0.502052 27.9611 0.502054 38.5029 0.502054ZM38.4184 47.1628C48.9355 47.1628 59.4527 47.1628 69.9698 47.1628C72.6532 47.1628 74.0649 45.7589 74.0649 43.0886C74.0649 31.0304 74.0649 18.9742 74.0649 6.916C74.0649 4.18417 72.7274 2.84391 70.0028 2.84391C48.9933 2.84391 27.9837 2.84391 6.97628 2.84391C4.29084 2.84391 2.93678 4.19033 2.93678 6.86058C2.93472 18.9434 2.93472 31.0263 2.93678 43.1091C2.93678 45.8266 4.28259 47.1607 7.02162 47.1607C17.4872 47.1628 27.9528 47.1628 38.4184 47.1628Z" fill="black"/>
<path d="M22.7373 41.3274C18.1227 41.3274 13.5081 41.3274 8.89562 41.3274C7.72742 41.3274 7.45512 41.1384 7.13501 40.0731C6.32018 37.3716 6.08945 34.6485 7.02068 31.9391C8.14523 28.6705 10.7519 26.9142 14.0756 25.9631C16.9358 25.146 19.8854 24.9924 22.8454 25.0003C25.8802 25.0082 28.9088 25.1519 31.8314 26.0576C36.7495 27.5836 39.2813 30.929 39.0713 35.8378C39.009 37.3204 38.614 38.7933 38.3293 40.2621C38.1817 41.0242 37.6412 41.3372 36.8139 41.3333C32.1203 41.3195 27.4288 41.3274 22.7373 41.3274ZM36.2298 39.0709C36.3608 38.4113 36.525 37.791 36.5977 37.1629C37.1507 32.3644 35.4233 29.2199 30.2849 27.9971C26.772 27.1603 23.1946 27.1761 19.6152 27.3749C17.4617 27.495 15.3373 27.8061 13.3356 28.6312C10.9805 29.5999 9.3841 31.2283 9.03905 33.664C8.83742 35.0777 8.96006 36.5505 9.08686 37.986C9.18456 39.0807 9.29057 39.0709 10.4796 39.0709C18.7276 39.0709 26.9757 39.0709 35.2238 39.0709C35.5335 39.0709 35.8432 39.0709 36.2298 39.0709Z" fill="#6366F1"/>
<path d="M22.1647 23.8332C17.9518 23.8332 14.5694 20.4315 14.5834 16.2109C14.5974 12.0442 17.9978 8.66451 22.1747 8.6665C26.3876 8.6685 29.77 12.0742 29.75 16.2948C29.7299 20.4854 26.3636 23.8332 22.1647 23.8332ZM27.4684 16.2808C27.4824 13.3805 25.1287 10.9935 22.2187 10.9556C19.3107 10.9176 16.863 13.3465 16.871 16.2648C16.879 19.1591 19.2667 21.5441 22.1647 21.5481C25.0647 21.5521 27.4544 19.1791 27.4684 16.2808Z" fill="#6366F1"/>
<path d="M56.0154 10.9998C52.5084 10.9998 49.0015 10.9998 45.4945 10.9998C45.2663 10.9998 45.036 11.0028 44.8098 10.9917C44.1496 10.9612 43.7848 10.7592 43.7522 10.4465C43.7176 10.1287 44.0864 9.92359 44.7079 9.84947C44.9015 9.82612 45.1114 9.83526 45.3152 9.83526C52.431 9.83424 59.5468 9.83424 66.6606 9.83526C66.8888 9.83526 67.1272 9.8251 67.3412 9.85455C67.9525 9.93882 68.301 10.1449 68.2439 10.4688C68.1909 10.7703 67.8323 10.9521 67.221 10.9886C66.9703 11.0038 66.7136 10.9988 66.4589 10.9988C62.9784 10.9998 59.4959 10.9998 56.0154 10.9998Z" fill="#6366F1"/>
<path d="M53.1511 16.8401C55.7184 16.8401 58.2877 16.8361 60.855 16.8441C61.1545 16.8441 61.5539 16.8061 61.7332 16.97C62.051 17.2618 62.4382 17.7055 62.4157 18.0653C62.3954 18.423 61.9553 18.8148 61.6068 19.0706C61.4031 19.2205 61.018 19.1505 60.7144 19.1505C55.6552 19.1545 50.5961 19.1525 45.5369 19.1525C45.3597 19.1525 45.1804 19.1585 45.0031 19.1465C44.2451 19.0966 43.752 18.6449 43.75 18.0013C43.748 17.3637 44.2533 16.8881 44.9929 16.8401C45.1702 16.8281 45.3495 16.8361 45.5267 16.8361C48.0675 16.8401 50.6083 16.8401 53.1511 16.8401Z" fill="#6366F1"/>
<path d="M60.0641 32.0066C62.2695 32.0066 64.4749 32.0056 66.6783 32.0076C66.9454 32.0076 67.291 31.9766 67.4658 32.0467C67.7977 32.1819 68.2278 32.3732 68.2494 32.5525C68.269 32.7318 67.8802 32.9441 67.5876 33.1033C67.4579 33.1744 67.1261 33.1634 66.8865 33.1644C62.3775 33.1674 57.8705 33.1674 53.3616 33.1644C53.122 33.1644 52.8667 33.1544 52.6428 33.1133C52.1165 33.0172 51.7964 32.7908 51.9594 32.5314C52.0792 32.3391 52.4681 32.1739 52.8039 32.0397C52.963 31.9766 53.2772 32.0076 53.5207 32.0076C55.7044 32.0056 57.8843 32.0066 60.0641 32.0066Z" fill="#6366F1"/>
<path d="M52.518 39.0022C54.9278 39.0022 57.3354 38.9981 59.7452 39.0042C60.7062 39.0063 61.25 39.4329 61.25 40.1581C61.25 40.8874 60.6979 41.3303 59.7514 41.3303C54.907 41.3343 50.0626 41.3343 45.2202 41.3303C44.2945 41.3303 43.7278 40.8509 43.7507 40.1256C43.7735 39.4247 44.3007 39.0063 45.2119 39.0042C47.6466 38.9961 50.0833 39.0022 52.518 39.0022Z" fill="#6366F1"/>
<path d="M51.3554 26.1648C49.5194 26.1648 47.6813 26.1648 45.8453 26.1648C45.7147 26.1648 45.5821 26.1648 45.4515 26.1648C44.3545 26.1588 43.765 25.7617 43.7503 25.0177C43.7355 24.2676 44.3356 23.8404 45.4115 23.8344C45.7526 23.8324 46.0937 23.8344 46.4348 23.8344C49.7931 23.8344 53.1536 23.8344 56.5119 23.8344C56.6698 23.8344 56.8277 23.8344 56.9835 23.8344C58.31 23.8344 58.9017 24.1874 58.9164 24.9816C58.9311 25.7858 58.3248 26.1648 57.0214 26.1668C55.1349 26.1648 53.2462 26.1648 51.3554 26.1648Z" fill="#6366F1"/>
<path d="M64.8179 26.1578C64.0479 26.1578 63.2779 26.1777 62.5099 26.1538C61.728 26.1298 61.2326 25.6413 61.2505 24.9713C61.2684 24.3293 61.7479 23.8607 62.494 23.8507C64.0081 23.8288 65.5222 23.8268 67.0363 23.8507C67.7884 23.8627 68.246 24.3333 68.25 24.9933C68.254 25.6533 67.7983 26.1199 67.0522 26.1518C66.3081 26.1817 65.564 26.1578 64.8179 26.1578Z" fill="#6366F1"/>
<path d="M46.0881 33.1608C45.6827 33.1608 45.2753 33.1748 44.874 33.1578C44.1977 33.1277 43.7027 32.8674 43.7536 32.5649C43.8106 32.2354 44.1956 32.0301 44.874 32.0151C45.6827 31.997 46.4955 31.993 47.3022 32.0151C47.9662 32.0331 48.3737 32.2274 48.4144 32.5649C48.4531 32.8784 47.9907 33.1267 47.3022 33.1578C46.9009 33.1758 46.4935 33.1608 46.0881 33.1608Z" fill="#6366F1"/>
</svg>
