<svg width="43" height="39" viewBox="0 0 43 39" fill="none" xmlns="http://www.w3.org/2000/svg">
<g clip-path="url(#clip0_523_2585)">
<rect x="0.157715" width="42" height="39" rx="6" fill="#F6F6F6"/>
<path d="M22.1577 10V16H28.1577" stroke="#4D4D4D" stroke-width="1.5" stroke-linecap="round" stroke-linejoin="round"/>
<path d="M22.9077 10H15.9077C15.4436 10 14.9985 10.1896 14.6703 10.5272C14.3421 10.8648 14.1577 11.3226 14.1577 11.8V26.2C14.1577 26.6774 14.3421 27.1352 14.6703 27.4728C14.9985 27.8104 15.4436 28 15.9077 28H26.4077C26.8718 28 27.317 27.8104 27.6452 27.4728C27.9733 27.1352 28.1577 26.6774 28.1577 26.2V15.4L22.9077 10Z" stroke="#4D4D4D" stroke-width="1.5" stroke-linecap="round" stroke-linejoin="round"/>
<path d="M24.6577 19.8999H17.6577" stroke="#6366F1" stroke-width="1.5" stroke-linecap="round" stroke-linejoin="round"/>
<path d="M24.6577 23.5H17.6577" stroke="#6366F1" stroke-width="1.5" stroke-linecap="round" stroke-linejoin="round"/>
<path d="M19.4077 16.3H18.5327H17.6577" stroke="#6366F1" stroke-width="1.5" stroke-linecap="round" stroke-linejoin="round"/>
</g>
<rect x="0.657715" y="0.5" width="41" height="38" rx="5.5" stroke="#EBEBEB"/>
<defs>
<clipPath id="clip0_523_2585">
<rect x="0.157715" width="42" height="39" rx="6" fill="white"/>
</clipPath>
</defs>
</svg>
