<svg width="20" height="21" viewBox="0 0 20 21" fill="none" xmlns="http://www.w3.org/2000/svg">
<rect y="0.9375" width="20" height="20" rx="4" fill="#6366F1"/>
<path d="M7.45752 14.2725L10.0015 16.9374L12.5455 14.2725" stroke="white" stroke-linecap="round" stroke-linejoin="round"/>
<path d="M10.0015 10.9414V16.9375" stroke="white" stroke-linecap="round" stroke-linejoin="round"/>
<path d="M15.6492 14.9987C16.2021 14.5914 16.6168 14.0101 16.833 13.3392C17.0492 12.6683 17.0556 11.9427 16.8515 11.2677C16.6473 10.5927 16.2431 10.0034 15.6976 9.58528C15.152 9.1672 14.4935 8.94211 13.8176 8.94266H13.0162C12.8249 8.16175 12.467 7.43647 11.9694 6.82143C11.4719 6.20638 10.8476 5.7176 10.1436 5.39187C9.43956 5.06615 8.67419 4.91197 7.90508 4.94094C7.13596 4.96992 6.38314 5.18129 5.70329 5.55915C5.02344 5.93701 4.43428 6.4715 3.98016 7.1224C3.52604 7.7733 3.21879 8.52363 3.08155 9.31692C2.94431 10.1102 2.98065 10.9258 3.18784 11.7022C3.39502 12.4787 3.76766 13.1957 4.27769 13.7995" stroke="white" stroke-linecap="round" stroke-linejoin="round"/>
</svg>
