<svg xmlns="http://www.w3.org/2000/svg" viewBox="0 0 16 16" id="E"><path fill-rule="evenodd" d="M4.91 1039.368a1 1 0 0 0-.023 0 1 1 0 0 0-.074.012 1 1 0 0 0-.059.012 1 1 0 0 0-.039.012 1 1 0 0 0-.02.01 1 1 0 0 0-.093.035 1 1 0 0 0-.598 1.031v3.776a1 1 0 0 0 0 .223v3.776a1 1 0 0 0 .118.582 1 1 0 0 0 .05.086 1 1 0 0 0 .059.078 1 1 0 0 0 .05.06 1 1 0 0 0 .02.02 1 1 0 0 0 .043.038 1 1 0 0 0 .028.024 1 1 0 0 0 .015.012 1 1 0 0 0 .067.051 1 1 0 0 0 .015.01 1 1 0 0 0 .16.082 1 1 0 0 0 .016 0 1 1 0 0 0 .004 0 1 1 0 0 0 .004 0 1 1 0 0 0 .418.062h5.916a1 1 0 1 0 0-2H6.004v-1.999h2.983a1 1 0 1 0 0-2H6.004v-1.999h4.983a1 1 0 1 0 0-2h-5.9a1 1 0 0 0-.075 0 1 1 0 0 0-.023 0 1 1 0 0 0-.079 0z" color="#000" font-family="sans-serif" font-weight="400" overflow="visible" transform="translate(0 -1036.362)" style="line-height:normal;text-indent:0;text-align:start;text-decoration-line:none;text-decoration-style:solid;text-decoration-color:#000;text-transform:none;block-progression:tb;white-space:normal;isolation:auto;mix-blend-mode:normal;solid-color:#000;solid-opacity:1" fill="#595bd4" class="color000000 svgShape"></path></svg>