<svg width="43" height="39" viewBox="0 0 43 39" fill="none" xmlns="http://www.w3.org/2000/svg">
<g clip-path="url(#clip0_523_2575)">
<rect x="0.157715" width="42" height="39" rx="6" fill="#F6F6F6"/>
<path d="M15.1577 15.6431L21.1577 20.1431L27.1577 15.6431" stroke="#6366F1" stroke-width="1.5" stroke-linecap="round" stroke-linejoin="round"/>
<path d="M9.15771 25.9286V13.0714C9.15771 12.3894 9.41057 11.7354 9.86066 11.2532C10.3107 10.7709 10.9212 10.5 11.5577 10.5H30.7577C31.3942 10.5 32.0047 10.7709 32.4548 11.2532C32.9049 11.7354 33.1577 12.3894 33.1577 13.0714V25.9286C33.1577 26.6106 32.9049 27.2646 32.4548 27.7468C32.0047 28.2291 31.3942 28.5 30.7577 28.5H11.5577C10.9212 28.5 10.3107 28.2291 9.86066 27.7468C9.41057 27.2646 9.15771 26.6106 9.15771 25.9286Z" stroke="#4D4D4D" stroke-width="1.5"/>
</g>
<rect x="0.657715" y="0.5" width="41" height="38" rx="5.5" stroke="#EBEBEB"/>
<defs>
<clipPath id="clip0_523_2575">
<rect x="0.157715" width="42" height="39" rx="6" fill="white"/>
</clipPath>
</defs>
</svg>
