<svg width="15" height="14" viewBox="0 0 15 14" fill="none" xmlns="http://www.w3.org/2000/svg">
<path fill-rule="evenodd" clip-rule="evenodd" d="M6.5 1H3C2.17157 1 1.5 1.67157 1.5 2.5V11.5C1.5 12.3284 2.17157 13 3 13H6.5V6V5V1ZM6.5 0H3C1.61929 0 0.5 1.11929 0.5 2.5V11.5C0.5 12.8807 1.61929 14 3 14H6.5H7.5H12C13.3807 14 14.5 12.8807 14.5 11.5V6V5V2.5C14.5 1.11929 13.3807 0 12 0H7.5H6.5ZM13.5 5V2.5C13.5 1.67157 12.8284 1 12 1H7.5V5H13.5ZM7.5 6V13H12C12.8284 13 13.5 12.3284 13.5 11.5V6H7.5Z" fill="#B4BECE"/>
</svg>
