<svg width="17" height="16" viewBox="0 0 17 16" fill="none" xmlns="http://www.w3.org/2000/svg">
<path d="M16.4913 6.40901C16.5068 6.29968 16.5015 6.18822 16.4757 6.08104C16.4499 5.97385 16.404 5.87302 16.3408 5.78434C16.2775 5.69566 16.1982 5.62086 16.1072 5.56423C16.0162 5.5076 15.9154 5.47024 15.8105 5.4543L11.2579 4.76012L9.22285 0.434508C9.14939 0.302289 9.04389 0.192543 8.91694 0.116279C8.78999 0.0400154 8.64605 -8.50012e-05 8.49955 1.35281e-07C8.35306 8.52718e-05 8.20916 0.040353 8.08229 0.116764C7.95542 0.193176 7.85004 0.303044 7.77672 0.435349L5.74249 4.76012L1.18983 5.4543C1.04122 5.47682 0.901609 5.54221 0.78674 5.64311C0.671872 5.744 0.58632 5.87637 0.53974 6.02529C0.49316 6.17421 0.487405 6.33375 0.523125 6.48589C0.558844 6.63804 0.634617 6.77675 0.741891 6.88636L4.03937 10.2589L3.26112 15.019C3.23652 15.1735 3.25371 15.3321 3.31076 15.477C3.3678 15.6219 3.46244 15.7473 3.58405 15.8391C3.70566 15.931 3.84941 15.9856 3.99915 15.9969C4.14889 16.0082 4.29869 15.9758 4.43171 15.9032L8.50019 13.6593L12.5679 15.9023C12.7007 15.9757 12.8506 16.0088 13.0006 15.998C13.1505 15.9871 13.2946 15.9327 13.4165 15.8409C13.5384 15.7491 13.6332 15.6236 13.6902 15.4785C13.7473 15.3334 13.7642 15.1745 13.7393 15.0199L12.961 10.2589L16.2593 6.88552C16.3843 6.75726 16.4657 6.58995 16.4913 6.40901ZM12.2464 9.81268C12.2001 9.86025 12.1654 9.91877 12.1453 9.98329C12.1253 10.0478 12.1204 10.1164 12.1312 10.1833L12.9449 15.1594L8.6879 12.8121C8.62992 12.7807 8.56554 12.7642 8.50019 12.7642C8.43484 12.7642 8.37045 12.7807 8.31247 12.8121L4.05548 15.1602L4.86918 10.1833C4.87995 10.1164 4.8751 10.0478 4.85504 9.98329C4.83499 9.91877 4.80032 9.86025 4.75397 9.81268L1.30584 6.28547L6.06877 5.55935C6.13353 5.54929 6.19499 5.52301 6.24788 5.48276C6.30078 5.44251 6.34353 5.38949 6.3725 5.32824L8.50019 0.805971L10.6271 5.32908C10.6561 5.39044 10.699 5.44352 10.752 5.48378C10.8051 5.52403 10.8667 5.55026 10.9316 5.56019L15.6953 6.28547L12.2464 9.81268Z" fill="#B4BECE"/>
</svg>
