<svg width="32" height="32" viewBox="0 0 32 32" fill="none" xmlns="http://www.w3.org/2000/svg">
<path d="M23.472 9.93928V5.48066C23.472 3.84583 24.8766 2.50824 26.5935 2.50824M17.229 17.3703H23.472M17.229 4.73756C17.2348 3.80775 16.8743 2.90968 16.2186 2.22066C15.563 1.53163 14.6598 1.10175 13.6876 1.01588C12.7153 0.93002 11.7445 1.19442 10.967 1.75687C10.1894 2.31932 9.66162 3.13894 9.48775 4.0539C8.97325 4.14569 8.48341 4.33512 8.04739 4.61091C7.61137 4.88669 7.23808 5.24321 6.94975 5.65921C6.66141 6.07522 6.46393 6.54222 6.36905 7.03242C6.27417 7.52261 6.28384 8.02597 6.39748 8.51252C5.69306 8.63161 5.03658 8.93282 4.49981 9.38324C3.96305 9.83366 3.56667 10.4159 3.35401 11.0664C3.14134 11.7169 3.12059 12.4105 3.29401 13.0715C3.46743 13.7324 3.82834 14.3353 4.3373 14.814C3.48129 15.1904 2.76452 15.804 2.28082 16.5747C1.79711 17.3453 1.569 18.2371 1.62635 19.1333C1.68369 20.0294 2.02381 20.8882 2.6022 21.5972C3.18058 22.3063 3.97029 22.8325 4.86795 23.1071C4.69656 23.7236 4.69473 24.3718 4.86263 24.9893C5.03052 25.6067 5.3625 26.1726 5.82661 26.6324C6.29071 27.0923 6.87131 27.4306 7.51253 27.6149C8.15374 27.7992 8.83397 27.8232 9.48775 27.6846C9.64977 28.5345 10.1177 29.3041 10.8111 29.8611C11.5045 30.418 12.38 30.7275 13.2871 30.7363C14.1942 30.7451 15.0762 30.4527 15.7813 29.9093C16.4865 29.3659 16.9708 28.6055 17.151 27.7589L17.229 27.7738V4.73756Z" stroke="#6366F1" stroke-width="2" stroke-linecap="round" stroke-linejoin="round"/>
<path d="M17.0791 24.8792H26.3138C27.1302 24.8792 27.9132 25.1957 28.4905 25.759C29.0678 26.3223 29.3921 27.0863 29.3921 27.8829V29.3848M17.0791 9.86079H29.3921M30.1617 9.86079C30.1617 10.0599 30.0806 10.2509 29.9363 10.3918C29.7919 10.5326 29.5962 10.6117 29.3921 10.6117C29.188 10.6117 28.9923 10.5326 28.8479 10.3918C28.7036 10.2509 28.6225 10.0599 28.6225 9.86079C28.6225 9.66163 28.7036 9.47063 28.8479 9.3298C28.9923 9.18898 29.188 9.10986 29.3921 9.10986C29.5962 9.10986 29.7919 9.18898 29.9363 9.3298C30.0806 9.47063 30.1617 9.66163 30.1617 9.86079ZM24.0052 17.37C24.0052 17.5692 23.9241 17.7602 23.7798 17.901C23.6354 18.0418 23.4397 18.1209 23.2356 18.1209C23.0315 18.1209 22.8358 18.0418 22.6914 17.901C22.5471 17.7602 22.466 17.5692 22.466 17.37C22.466 17.1708 22.5471 16.9798 22.6914 16.839C22.8358 16.6982 23.0315 16.6191 23.2356 16.6191C23.4397 16.6191 23.6354 16.6982 23.7798 16.839C23.9241 16.9798 24.0052 17.1708 24.0052 17.37Z" stroke="#6366F1" stroke-width="2" stroke-linecap="round" stroke-linejoin="round"/>
</svg>
