<svg width="34" height="34" viewBox="0 0 34 34" fill="none" xmlns="http://www.w3.org/2000/svg">
<path d="M16.6515 0.830745C12.3663 0.891788 8.28065 2.65143 5.29213 5.72307C2.30361 8.79471 0.656681 12.9271 0.713185 17.2123C0.769725 21.5005 2.52742 25.5906 5.5996 28.5828C8.67178 31.575 12.8068 33.2242 17.095 33.1677C19.1445 33.1408 21.1702 32.7244 23.0641 31.9408C22.5106 31.0202 21.9599 30.0979 21.4118 29.174C20.5502 30.3044 19.5838 31.0837 18.5689 31.4555C18.3415 31.4814 18.1122 31.5013 17.8818 31.5169L17.7931 24.7914L18.7619 24.7786C18.4584 24.2711 18.2108 23.7322 18.0237 23.1712L17.7718 23.1746L17.7585 22.1689C17.5394 21.0873 17.5247 19.9743 17.7152 18.8873L17.7009 17.7969L17.9825 17.7932C18.1066 17.3958 18.2608 17.0084 18.4437 16.6344C18.5192 16.4752 18.6019 16.3202 18.6875 16.1667L17.6795 16.18L17.6086 10.8024L23.8158 10.7205C23.9279 11.1295 24.0305 11.5499 24.1225 11.9801C24.6454 11.8427 25.1807 11.7572 25.7204 11.7249C25.649 11.381 25.5703 11.0387 25.4844 10.6982L29.976 10.639C30.3441 11.3995 30.6448 12.1907 30.8749 13.0037C31.627 13.4712 32.3058 14.0476 32.8891 14.7139C32.3338 10.8241 30.3812 7.2695 27.396 4.71448C24.4109 2.15945 20.5975 0.778796 16.6686 0.830519C16.6629 0.830591 16.6572 0.830666 16.6515 0.830745ZM17.5012 2.65726C19.2086 2.92454 20.8549 4.30651 22.1681 6.6182C22.5913 7.3633 22.9717 8.20114 23.3032 9.1098L17.5873 9.18517L17.5012 2.65726ZM15.8852 2.74228L15.9705 9.20649L10.554 9.2779C10.8614 8.36081 11.2196 7.51323 11.623 6.75724C12.8009 4.54951 14.2965 3.15846 15.8852 2.74228ZM12.1658 3.22892C11.4243 3.9994 10.7619 4.93573 10.196 5.99595C9.66575 6.98939 9.21305 8.10052 8.84496 9.30044L4.49399 9.3578C6.24674 6.51893 8.94758 4.32799 12.1658 3.22892ZM21.6781 3.25325C24.7317 4.31685 27.321 6.37043 29.0638 9.03385L25.0103 9.08729C24.6117 7.89748 24.1305 6.79867 23.5742 5.81955C23.0193 4.84203 22.3811 3.9759 21.6781 3.25325ZM3.62507 10.9867L8.41356 10.9236C8.03297 12.5981 7.81011 14.4116 7.77208 16.311L2.34267 16.3826C2.41855 14.5183 2.85389 12.6862 3.62475 10.9871L3.62507 10.9867ZM10.0841 10.9016L15.9918 10.8237L16.0627 16.2013L9.39056 16.2893C9.43381 14.3692 9.67857 12.5486 10.0838 10.9016L10.0841 10.9016ZM2.36399 17.9991L7.78434 17.9276C7.85103 19.8207 8.09835 21.628 8.50005 23.2968L3.78788 23.3589C2.97248 21.6807 2.48899 19.8607 2.36399 17.9991ZM9.4012 17.9063L16.084 17.8182L16.1549 23.1959L10.1661 23.2748C9.74172 21.631 9.4717 19.8185 9.4012 17.9063ZM4.69976 24.9641L8.94758 24.908C9.36662 26.2237 9.88644 27.4313 10.4927 28.4987C10.9689 29.3366 11.506 30.0925 12.0923 30.7475C9.03579 29.6849 6.44422 27.6294 4.69976 24.9641ZM10.6479 24.8856L16.1762 24.8127L16.2649 31.5382C16.1652 31.534 16.0668 31.5253 15.9678 31.5195C14.4771 31.054 13.058 29.7402 11.8991 27.7001C11.4263 26.8674 11.005 25.9207 10.6479 24.8856Z" fill="#4D4D4D"/>
<path d="M26.2166 13.6418C22.4842 13.691 19.466 16.7807 19.5151 20.5027C19.5341 21.945 20.0122 23.2793 20.8064 24.3707L25.6362 32.4717C26.3089 33.327 26.7466 33.1572 27.2868 32.4046L32.3781 23.4723C32.4807 23.2801 32.5605 23.0766 32.6299 22.8687C32.9498 22.0589 33.1084 21.1943 33.0967 20.3237C33.0476 16.6016 29.9496 13.5926 26.2166 13.6418ZM26.2584 16.8147C28.2685 16.7882 29.8883 18.3617 29.9147 20.3659C29.9411 22.3702 28.3634 23.9852 26.3533 24.0117C24.3436 24.0382 22.7235 22.465 22.697 20.4611C22.6706 18.4568 24.2487 16.8412 26.2584 16.8147Z" fill="#4D4D4D"/>
</svg>
