<svg width="63" height="64" viewBox="0 0 63 64" fill="none" xmlns="http://www.w3.org/2000/svg">
<path d="M11.7034 10.9968C13.2584 10.9968 14.8134 11.0035 16.3649 10.9935C17.0359 10.9901 17.3993 10.6957 17.4342 10.1804C17.4727 9.5982 17.0638 9.23683 16.309 9.23683C13.2619 9.23014 10.2148 9.23014 7.16766 9.23683C6.39889 9.23683 5.98306 9.57477 6.00053 10.1469C6.018 10.6957 6.40937 10.9935 7.16067 10.9968C8.67724 11.0035 10.1903 10.9968 11.7034 10.9968ZM19.2443 6.76416C20.8413 6.76082 22.4347 6.77085 24.0317 6.75747C24.6117 6.75078 24.9926 6.38606 24.9996 5.90425C25.0066 5.44585 24.6502 5.09118 24.112 5.01757C24.0107 5.00418 23.9093 5.00083 23.8045 5.00083C20.7784 5.00083 17.7522 4.99749 14.7226 5.00418C13.9643 5.00418 13.531 5.35551 13.5415 5.91094C13.5519 6.44964 13.9643 6.76082 14.6981 6.76082C16.2182 6.76751 17.7312 6.76416 19.2443 6.76416ZM22.6688 10.9935C23.1406 10.9901 23.6088 11.0102 24.0771 10.9868C24.6222 10.96 24.9821 10.612 24.9996 10.1469C25.0136 9.69188 24.6572 9.27364 24.1295 9.25356C23.172 9.2201 22.2076 9.2201 21.2501 9.25356C20.698 9.27364 20.3695 9.64504 20.3695 10.1269C20.373 10.6288 20.7259 10.9634 21.32 10.9901C21.7673 11.0102 22.2181 10.9935 22.6688 10.9935ZM8.27888 6.75747C8.76809 6.75747 9.26081 6.77085 9.75002 6.75412C10.2847 6.73405 10.5922 6.41953 10.6201 5.93771C10.6516 5.4492 10.3615 5.06776 9.84437 5.04433C8.8275 4.99749 7.80364 4.99749 6.78327 5.04433C6.26959 5.06776 5.97956 5.43247 6.00751 5.93436C6.03197 6.43291 6.34647 6.72736 6.87063 6.75412C7.33888 6.7742 7.81063 6.75747 8.27888 6.75747Z" fill="white"/>
<path d="M37.482 64C36.2537 63.4845 35.7851 62.5638 35.8242 61.2377C35.8739 59.5526 35.3627 57.9919 34.4148 56.5913C31.6884 52.5598 28.9406 48.539 26.232 44.4934C25.8947 43.9921 25.6071 43.3842 25.529 42.7941C25.3089 41.2049 26.4663 39.9749 28.2164 39.7545C30.066 39.5234 31.6351 40.078 32.9025 41.4218C33.6125 42.1755 34.2444 43.0074 34.9721 43.8748C34.9899 43.6224 35.0183 43.4091 35.0183 43.1958C35.0254 40.2166 35.0325 37.2375 35.0148 34.2619C35.0148 34.0664 34.8621 33.7642 34.7023 33.6931C32.3487 32.6515 30.666 30.9521 29.6151 28.6094C29.6009 28.5738 29.5583 28.5525 29.4873 28.4885C25.9728 30.5255 22.4334 32.5732 18.9011 34.6174C21.8761 40.4619 19.0183 46.2211 14.8896 48.4324C10.413 50.8285 4.86783 49.602 1.91774 45.5101C-1.06429 41.3756 -0.506932 35.7159 3.16026 32.1893C6.66059 28.8262 13.4554 28.0228 17.8397 33.0425C17.9959 32.9572 18.1592 32.8754 18.3189 32.783C21.7199 30.8171 25.1137 28.8404 28.5253 26.8887C28.9158 26.6647 28.9974 26.4479 28.9406 26.0071C28.6318 23.5292 29.2211 21.2575 30.6482 19.2098C30.7654 19.0427 30.8861 18.8756 31.0316 18.6765C30.0589 17.706 29.1075 16.7497 28.1383 15.804C28.0425 15.7116 27.8508 15.676 27.7052 15.6867C27.0662 15.7258 26.4272 15.836 25.7882 15.8396C23.147 15.8574 20.5057 15.8467 17.8645 15.8467C17.6977 15.8467 17.5308 15.8538 17.364 15.8431C16.6859 15.8076 16.2741 15.4414 16.2777 14.8868C16.2812 14.3322 16.6966 13.9767 17.3853 13.9732C20.3176 13.9696 23.2499 13.9696 26.1823 13.9696C27.6591 13.9696 28.0247 13.6034 28.0247 12.121C28.0247 9.24849 28.0283 6.37244 28.0247 3.49995C28.0247 2.30901 27.5916 1.87885 26.4095 1.87885C19.5472 1.87885 12.6815 1.87885 5.81924 1.87885C4.68323 1.87885 4.23592 2.32323 4.23592 3.47152C4.22882 6.42933 4.22882 9.38714 4.23592 12.3449C4.23947 13.5181 4.69033 13.9625 5.86894 13.9661C8.15516 13.9732 10.4449 13.9625 12.7312 13.9696C13.4305 13.9732 13.8104 14.318 13.8033 14.901C13.7962 15.4343 13.4447 15.8218 12.8306 15.8254C10.3349 15.8431 7.83566 15.8893 5.34353 15.8005C3.57561 15.7365 2.38635 14.4282 2.3686 12.6471C2.33665 9.48313 2.3331 6.31556 2.37215 3.15156C2.397 1.28515 3.74957 0.00533259 5.61689 0.00533259C12.6247 -0.00177753 19.636 -0.00177753 26.6438 0.00533259C28.5324 0.00888765 29.8743 1.33137 29.8849 3.22266C29.9027 6.34756 29.9027 9.47246 29.8743 12.5938C29.8707 13.0773 29.6719 13.5608 29.5832 14.0478C29.5512 14.2256 29.5122 14.4851 29.608 14.5846C30.4991 15.5125 31.4186 16.4119 32.3238 17.3114C36.4312 14.446 40.4925 14.414 44.5821 17.322C45.7501 16.156 46.9251 14.9793 48.1002 13.8025C48.9983 12.9031 49.8823 11.993 50.7982 11.1149C51.0822 10.8412 51.1106 10.6279 50.9615 10.2617C49.9995 7.87624 50.2764 5.62589 51.952 3.65994C53.6311 1.69043 55.8357 1.02563 58.3136 1.67621C60.7738 2.31968 62.2968 3.99766 62.8577 6.48976C63.4292 9.02452 62.24 11.7264 59.9928 13.1057C57.7279 14.4993 54.8062 14.3073 52.7578 12.6365C52.6158 12.5191 52.4738 12.4018 52.3922 12.3378C50.2373 14.4886 48.1073 16.611 45.9524 18.7654C47.0884 20.2087 47.7913 21.8974 48.0114 23.8242C49.7013 23.8242 51.3769 23.8242 53.1128 23.8242C53.5033 22.4413 54.3163 21.3393 55.7044 20.7278C56.6522 20.3083 57.632 20.2479 58.6296 20.5109C60.5999 21.03 62.0128 22.9639 61.9063 24.9939C61.7998 27.1198 60.2555 28.8404 58.1361 29.2031C55.9387 29.5799 54.1175 28.3498 53.0809 25.776C51.4124 25.776 49.7368 25.776 48.0185 25.776C47.7842 27.7384 47.0636 29.4839 45.8424 30.9557C46.169 31.5174 46.4672 32.0329 46.7973 32.5981C47.7345 32.2 48.7392 32.0827 49.751 32.5057C50.7556 32.9252 51.3733 33.7002 51.6644 34.5925C52.4809 34.5285 53.2513 34.3366 53.979 34.4361C55.6511 34.6672 56.7552 36.0003 56.7942 37.7494C56.8368 39.6656 56.8155 41.5818 56.8049 43.498C56.8013 44.1592 56.3931 44.5787 55.8357 44.5574C55.2961 44.536 54.9447 44.1379 54.9411 43.4908C54.934 41.6564 54.9482 39.8256 54.934 37.9912C54.9269 36.9993 54.4619 36.3914 53.6524 36.2527C52.6265 36.0785 51.8419 36.7896 51.8313 37.9414C51.8171 39.7118 51.8277 41.4822 51.8242 43.2527C51.8242 43.4411 51.8419 43.633 51.8064 43.8144C51.7141 44.3014 51.4159 44.5965 50.9083 44.6071C50.4006 44.6214 50.0918 44.3298 49.9782 43.8535C49.932 43.6544 49.9533 43.4411 49.9498 43.2313C49.9462 40.7321 49.9533 38.2329 49.9427 35.7337C49.9391 34.916 49.5344 34.3721 48.8492 34.173C48.2244 33.9882 47.4931 34.173 47.1914 34.7134C46.9819 35.0938 46.8648 35.5702 46.8577 36.0074C46.8222 38.0054 46.8435 40.0069 46.8399 42.0048C46.8399 42.211 46.9038 42.4777 46.8044 42.6163C46.6021 42.8972 46.3216 43.2811 46.0483 43.306C45.7394 43.3309 45.3489 43.0607 45.1004 42.8083C44.9513 42.6554 44.9762 42.2999 44.9762 42.0333C44.9691 39.2425 44.9797 36.4518 44.9655 33.6611C44.962 32.591 44.3336 31.9582 43.3751 31.9867C42.6509 32.008 42.1077 32.4382 41.9515 33.1492C41.8876 33.43 41.8699 33.7251 41.8699 34.0166C41.8628 36.2456 41.8663 38.4747 41.8663 40.7037C41.8663 40.9134 41.9338 41.1765 41.8344 41.3151C41.6249 41.6102 41.3693 41.9622 41.0569 42.0724C40.6274 42.2217 40.2369 41.9551 40.0913 41.5036C40.0097 41.2547 40.0026 40.9739 40.0026 40.7037C39.999 35.6413 39.999 30.5824 39.999 25.52C39.999 25.2285 40.0061 24.9334 39.9742 24.6455C39.8819 23.874 39.3209 23.3656 38.5541 23.3336C37.7305 23.2981 37.1235 23.7389 36.9744 24.5246C36.914 24.8481 36.9034 25.1858 36.9034 25.5165C36.8998 31.1832 36.9069 36.8464 36.8927 42.5132C36.8892 43.2811 36.8288 44.0525 36.7081 44.8098C36.6052 45.4426 36.2999 46.0149 35.6147 46.2105C34.9118 46.4096 34.3367 46.1074 33.8965 45.5883C33.3604 44.9555 32.906 44.2516 32.3629 43.6224C31.9049 43.0891 31.4079 42.5772 30.8577 42.1399C30.0731 41.5142 29.1288 41.4538 28.1845 41.6529C27.3822 41.8235 27.1585 42.3923 27.5632 43.1069C27.6768 43.306 27.8153 43.4908 27.9431 43.6793C30.595 47.5863 33.2433 51.4968 35.8987 55.4039C37.1306 57.2169 37.7341 59.2149 37.7128 61.4012C37.7057 61.9452 37.8796 62.1158 38.4263 62.1158C43.0627 62.098 47.7026 62.0945 52.3389 62.1158C52.9247 62.1194 53.0986 61.9274 53.0809 61.3586C53.0489 60.1321 52.9886 58.8914 53.1022 57.6755C53.1945 56.7015 53.3791 55.674 53.798 54.8031C54.5968 53.15 55.0583 51.4684 54.9518 49.6304C54.9198 49.0687 54.9305 48.507 54.9553 47.9453C54.9766 47.4014 55.3636 47.0246 55.857 47.0139C56.3434 47.0032 56.7871 47.3765 56.8049 47.9062C56.8901 50.4765 56.9291 53.0397 55.5659 55.3719C55.0902 56.1824 54.9198 57.0712 54.9376 58.0097C54.9553 59.03 54.8879 60.0539 54.9553 61.0706C55.0405 62.418 54.6039 63.4205 53.3329 63.9822C48.0505 64 42.768 64 37.482 64ZM1.86095 39.5234C1.8148 44.0348 5.43229 47.7285 9.95503 47.7854C14.4955 47.8422 18.2231 44.2054 18.2657 39.6763C18.3083 35.108 14.7192 31.4179 10.1716 31.3539C5.60268 31.2899 1.91065 34.9231 1.86095 39.5234ZM35.0289 31.7663C35.0289 31.3396 35.0254 31.0339 35.0289 30.7246C35.0467 28.6449 34.9792 26.5581 35.1106 24.4855C35.2278 22.6049 36.7685 21.3997 38.6642 21.4886C40.4463 21.5703 41.7918 22.9319 41.8592 24.7663C41.8947 25.7013 41.8734 26.6399 41.877 27.5748C41.8805 28.5063 41.877 29.4341 41.877 30.3762C42.4343 30.2873 42.9278 30.1238 43.4035 30.1594C43.9644 30.202 44.2945 29.9781 44.5892 29.5657C46.5133 26.8532 46.7689 23.9949 45.214 21.0513C43.7656 18.3175 40.7623 16.7994 37.656 17.123C34.3615 17.4678 31.6848 19.8355 30.9216 23.0812C30.176 26.2595 31.5499 29.6297 34.3083 31.3716C34.5071 31.4925 34.7272 31.5992 35.0289 31.7663ZM56.709 12.1707C59.155 12.1743 61.104 10.2332 61.1182 7.7838C61.1324 5.33792 59.1941 3.37198 56.7516 3.3542C54.2773 3.33287 52.3105 5.29526 52.3141 7.77314C52.3212 10.219 54.2631 12.1672 56.709 12.1707ZM54.9269 24.8161C54.9269 26.2524 56.0629 27.3935 57.4936 27.3864C58.8816 27.3793 60.0319 26.2417 60.0532 24.8517C60.0745 23.4439 58.9101 22.26 57.4971 22.2529C56.0629 22.2458 54.9305 23.3763 54.9269 24.8161Z" fill="black"/>
<path d="M11.9809 10.9975C10.3932 10.9975 8.80554 11.0013 7.21789 10.9975C6.42956 10.9937 6.01889 10.6567 6.00056 10.0357C5.98223 9.38815 6.41489 9.00568 7.22522 9.00568C10.4225 8.99811 13.6198 8.99811 16.8172 9.00568C17.6091 9.00947 18.0345 9.41466 17.9978 10.0736C17.9648 10.6529 17.5798 10.9862 16.8758 10.9937C15.2405 11.0051 13.6125 10.9975 11.9809 10.9975Z" fill="#6366F1"/>
<path d="M19.4683 6.99831C18.0157 6.99831 16.5632 7.00211 15.1107 6.99831C14.4029 6.99452 14.0104 6.64517 14.0003 6.03381C13.9869 5.40346 14.4062 5.00475 15.1342 5.00475C18.0392 4.99715 20.9443 5.00095 23.8527 5.00095C23.95 5.00095 24.0506 5.00474 24.1479 5.01993C24.6645 5.10347 25.0033 5.50599 25 6.02621C24.9933 6.57682 24.6276 6.99072 24.0708 6.99452C22.531 7.00591 21.0013 6.99452 19.4683 6.99831Z" fill="#6366F1"/>
<path d="M22.9863 10.9926C22.5969 10.9926 22.2075 11.0115 21.8211 10.9888C21.3079 10.9586 21 10.5809 21 10.0143C20.997 9.4703 21.2838 9.051 21.7607 9.02833C22.5908 8.99056 23.4209 8.99056 24.248 9.02833C24.7038 9.051 25.0117 9.5194 24.9997 10.0369C24.9876 10.562 24.6736 10.9548 24.2027 10.9851C23.7983 11.0115 23.3907 10.9888 22.9863 10.9926Z" fill="#6366F1"/>
<path d="M8.46166 6.99178C7.95071 6.99178 7.44355 7.01461 6.93639 6.98417C6.36868 6.95374 6.03183 6.61891 6.00155 6.05201C5.97506 5.4813 6.2892 5.06658 6.84177 5.03995C7.94314 4.98668 9.05209 4.98668 10.1572 5.03995C10.7212 5.06658 11.0315 5.50032 10.9975 6.05582C10.9672 6.6037 10.6341 6.96135 10.0551 6.98417C9.52518 7.007 8.99531 6.99178 8.46166 6.99178Z" fill="#6366F1"/>
<path d="M15 39.4697C15.0067 41.9843 13.003 44.0034 10.5068 44C8.04434 43.9966 6.02039 41.9843 6.00015 39.5236C5.97991 37.0427 8.03084 34.9866 10.5102 35.0001C13.0064 35.0135 14.9932 36.9888 15 39.4697ZM13.2189 39.4731C13.2122 37.9663 12.0045 36.7731 10.4967 36.7798C9.00234 36.7866 7.78123 38.0034 7.77785 39.4933C7.77448 41.0034 9.02933 42.2371 10.5473 42.2135C12.0585 42.1933 13.229 40.9899 13.2189 39.4731Z" fill="#6366F1"/>
</svg>
