<svg width="37" height="32" viewBox="0 0 37 32" fill="none" xmlns="http://www.w3.org/2000/svg">
<path d="M32.197 26.0894C33.3539 26.6608 34.3101 27.4644 35.0657 28.5001C35.8212 29.5358 36.2993 30.7024 36.5 32H34.5521C34.4223 31.3214 34.1803 30.6905 33.8261 30.1072C33.472 29.5239 33.0411 29.0239 32.5334 28.6072C32.0258 28.1905 31.4533 27.8572 30.8158 27.6072C30.1783 27.3572 29.5172 27.2382 28.8325 27.2501C28.136 27.2501 27.4749 27.3691 26.8492 27.6072C26.2236 27.8453 25.651 28.1727 25.1316 28.5893C24.6122 29.006 24.1813 29.5119 23.8389 30.1072C23.4966 30.7024 23.2545 31.3333 23.1129 32H21.165C21.3539 30.7143 21.8261 29.5536 22.5817 28.5179C23.3372 27.4822 24.2993 26.6727 25.468 26.0894C24.7951 25.5537 24.2757 24.9049 23.9097 24.143C23.5438 23.3811 23.3549 22.5716 23.3431 21.7145C23.3431 21.1788 23.4139 20.6609 23.5556 20.1609C23.6972 19.6609 23.9097 19.1907 24.1931 18.7502C24.4764 18.3098 24.8128 17.9169 25.2024 17.5717C25.592 17.2264 26.0288 16.9348 26.5128 16.6967C26.194 16.2324 25.8281 15.8217 25.4149 15.4646C25.0017 15.1074 24.5531 14.792 24.0691 14.5182C23.5851 14.2444 23.0775 14.0479 22.5462 13.9289C22.015 13.8098 21.4661 13.7384 20.8994 13.7146C19.955 13.7146 19.0519 13.8991 18.1901 14.2682C17.3283 14.6372 16.5787 15.1789 15.9412 15.8931C16.2245 16.6669 16.3662 17.4645 16.3662 18.286C16.3662 19.3812 16.1242 20.4109 15.6402 21.3752C15.1562 22.3395 14.4774 23.149 13.6038 23.8037C14.3711 24.1966 15.0617 24.6787 15.6756 25.2501C16.2895 25.8215 16.8207 26.4644 17.2693 27.1787C17.7179 27.8929 18.0544 28.6548 18.2787 29.4643C18.503 30.2738 18.621 31.1191 18.6328 32H16.3662C16.3662 31.0595 16.1891 30.1726 15.835 29.3393C15.4808 28.506 14.9968 27.7798 14.3829 27.1608C13.7691 26.5418 13.043 26.0477 12.2049 25.6787C11.3667 25.3096 10.4872 25.1311 9.5664 25.143C8.62199 25.143 7.7425 25.3215 6.92794 25.6787C6.11338 26.0358 5.39326 26.5239 4.76758 27.1429C4.14191 27.762 3.65199 28.4941 3.29784 29.3393C2.94368 30.1846 2.7666 31.0714 2.7666 32H0.5C0.5 31.131 0.618052 30.2917 0.854156 29.4822C1.09026 28.6727 1.42671 27.9108 1.8635 27.1965C2.3003 26.4822 2.82563 25.8394 3.4395 25.268C4.05337 24.6966 4.74988 24.2085 5.52902 23.8037C4.65544 23.149 3.97664 22.3395 3.49262 21.3752C3.00861 20.4109 2.7666 19.3812 2.7666 18.286C2.7666 17.3455 2.94368 16.4586 3.29784 15.6253C3.65199 14.792 4.13601 14.0658 4.74988 13.4468C5.36375 12.8277 6.08387 12.3337 6.91023 11.9646C7.7366 11.5956 8.62199 11.417 9.5664 11.4289C10.5698 11.4289 11.5202 11.6432 12.4174 12.0718C13.3146 12.5003 14.0937 13.0956 14.7548 13.8575C15.0617 13.5598 15.3923 13.292 15.7464 13.0539C16.1006 12.8158 16.4725 12.5896 16.862 12.3753C15.9884 11.7206 15.3096 10.9111 14.8256 9.94681C14.3416 8.98254 14.0996 7.9528 14.0996 6.85758C14.0996 5.91712 14.2767 5.03023 14.6308 4.19691C14.985 3.36359 15.469 2.63742 16.0829 2.01838C16.6968 1.39934 17.4169 0.905304 18.2432 0.536263C19.0696 0.167222 19.955 -0.0113465 20.8994 0.000558026C21.832 0.000558026 22.7115 0.179126 23.5379 0.536263C24.3642 0.8934 25.0844 1.38149 25.6982 2.00052C26.3121 2.61956 26.802 3.35169 27.168 4.19691C27.5339 5.04214 27.711 5.92903 27.6992 6.85758C27.6992 7.9528 27.4572 8.98254 26.9732 9.94681C26.4892 10.9111 25.8104 11.7206 24.9368 12.3753C25.7632 12.8158 26.5069 13.3515 27.168 13.9825C27.8291 14.6134 28.3898 15.3455 28.8502 16.1788C29.6058 16.1788 30.3141 16.3217 30.9752 16.6074C31.6363 16.8931 32.2206 17.2919 32.7282 17.8038C33.2359 18.3157 33.6254 18.899 33.8969 19.5538C34.1685 20.2085 34.3101 20.9288 34.3219 21.7145C34.3219 22.5716 34.139 23.3811 33.773 24.143C33.407 24.9049 32.8817 25.5537 32.197 26.0894ZM9.5664 22.8573C10.1921 22.8573 10.7764 22.7383 11.3195 22.5002C11.8625 22.2621 12.3465 21.9347 12.7715 21.518C13.1965 21.1014 13.5212 20.6192 13.7455 20.0716C13.9697 19.524 14.0878 18.9288 14.0996 18.286C14.0996 17.655 13.9816 17.0657 13.7455 16.5181C13.5093 15.9705 13.1847 15.4824 12.7715 15.0539C12.3583 14.6253 11.8802 14.2979 11.3372 14.0717C10.7941 13.8456 10.2039 13.7265 9.5664 13.7146C8.94073 13.7146 8.35637 13.8336 7.81333 14.0717C7.27029 14.3098 6.78628 14.6372 6.36129 15.0539C5.9363 15.4705 5.61166 15.9527 5.38736 16.5003C5.16306 17.0479 5.04501 17.6431 5.0332 18.286C5.0332 18.9169 5.15125 19.5062 5.38736 20.0538C5.62346 20.6014 5.94811 21.0895 6.36129 21.518C6.77447 21.9466 7.25258 22.274 7.79562 22.5002C8.33866 22.7264 8.92892 22.8454 9.5664 22.8573ZM16.3662 6.85758C16.3662 7.48852 16.4843 8.0778 16.7204 8.62541C16.9565 9.17302 17.2811 9.6611 17.6943 10.0897C18.1075 10.5182 18.5856 10.8456 19.1286 11.0718C19.6717 11.298 20.2619 11.417 20.8994 11.4289C21.5251 11.4289 22.1094 11.3099 22.6525 11.0718C23.1955 10.8337 23.6795 10.5063 24.1045 10.0897C24.5295 9.67301 24.8542 9.19087 25.0785 8.64326C25.3028 8.09565 25.4208 7.50043 25.4326 6.85758C25.4326 6.22664 25.3146 5.63736 25.0785 5.08975C24.8424 4.54215 24.5177 4.05406 24.1045 3.62549C23.6913 3.19693 23.2132 2.86956 22.6702 2.64337C22.1272 2.41718 21.5369 2.29814 20.8994 2.28623C20.2737 2.28623 19.6894 2.40528 19.1463 2.64337C18.6033 2.88146 18.1193 3.20884 17.6943 3.62549C17.2693 4.04215 16.9447 4.52429 16.7204 5.0719C16.4961 5.61951 16.378 6.21474 16.3662 6.85758ZM28.8325 18.1074C28.3367 18.1074 27.8763 18.2026 27.4513 18.3931C27.0263 18.5836 26.6485 18.8395 26.318 19.1609C25.9875 19.4824 25.7277 19.8633 25.5389 20.3038C25.35 20.7442 25.2555 21.2145 25.2555 21.7145C25.2555 22.2145 25.35 22.6787 25.5389 23.1073C25.7277 23.5359 25.9816 23.9168 26.3003 24.2501C26.619 24.5835 26.9968 24.8454 27.4336 25.0358C27.8704 25.2263 28.3367 25.3215 28.8325 25.3215C29.3283 25.3215 29.7887 25.2263 30.2137 25.0358C30.6387 24.8454 31.0165 24.5894 31.347 24.268C31.6776 23.9466 31.9373 23.5656 32.1262 23.1252C32.3151 22.6847 32.4095 22.2145 32.4095 21.7145C32.4095 21.2145 32.3151 20.7502 32.1262 20.3216C31.9373 19.8931 31.6835 19.5121 31.3647 19.1788C31.046 18.8455 30.6682 18.5836 30.2314 18.3931C29.7946 18.2026 29.3283 18.1074 28.8325 18.1074Z" fill="#4D4D4D"/>
</svg>
