<svg width="17" height="16" viewBox="0 0 17 16" fill="none" xmlns="http://www.w3.org/2000/svg">
<path d="M3.61111 9.83779H9.83333V8.90086H3.61111V9.83779ZM3.61111 7.027H13.3889V6.09006H3.61111V7.027ZM3.61111 4.2162H13.3889V3.27926H3.61111V4.2162ZM0.5 16V1.51315C0.5 1.08216 0.637185 0.722375 0.911556 0.4338C1.18533 0.1446 1.52667 0 1.93556 0H15.0644C15.4733 0 15.8147 0.1446 16.0884 0.4338C16.3628 0.722375 16.5 1.08216 16.5 1.51315V11.6039C16.5 12.0349 16.3631 12.395 16.0893 12.6842C15.815 12.9728 15.4733 13.1171 15.0644 13.1171H3.23511L0.5 16ZM2.85556 12.1801H15.0644C15.2007 12.1801 15.3261 12.1202 15.4404 12.0002C15.5542 11.8797 15.6111 11.7476 15.6111 11.6039V1.51315C15.6111 1.36948 15.5542 1.23738 15.4404 1.11682C15.3261 0.996896 15.2007 0.936933 15.0644 0.936933H1.93556C1.79926 0.936933 1.67393 0.996896 1.55956 1.11682C1.44578 1.23738 1.38889 1.36948 1.38889 1.51315V13.7214L2.85556 12.1801Z" fill="#B4BECE"/>
</svg>
