<svg xmlns="http://www.w3.org/2000/svg" viewBox="0 0 16 16" id="N"><path style="line-height:normal;text-indent:0;text-align:start;text-decoration-line:none;text-decoration-style:solid;text-decoration-color:#000;text-transform:none;block-progression:tb;white-space:normal;isolation:auto;mix-blend-mode:normal;solid-color:#000;solid-opacity:1" fill-rule="evenodd" d="M5.047 1039.365a.998.998 0 0 0-.101 0 .998.998 0 0 0-.935 1.028.998.998 0 0 0 0 .051v7.906a.998.998 0 1 0 1.994 0v-4.988l4.154 5.545a.998.998 0 0 0 .004.01l.027.035a.998.998 0 0 0 1.8-.6v-7.956a.998.998 0 0 0-1.013-1.013.998.998 0 0 0-.982 1.013v4.967l-4.184-5.587a.998.998 0 0 0-.764-.413z" color="#000" enable-background="accumulate" font-family="sans-serif" font-weight="400" overflow="visible" transform="translate(0 -1036.362)" fill="#595bd4" class="color000000 svgShape"></path></svg>