<svg width="43" height="39" viewBox="0 0 43 39" fill="none" xmlns="http://www.w3.org/2000/svg">
<g clip-path="url(#clip0_523_2580)">
<rect x="0.157715" width="42" height="39" rx="6" fill="#F6F6F6"/>
<path d="M22.658 10.5C22.658 10.5 24.721 10.6874 27.3453 13.3126C29.9704 15.9378 30.1578 18 30.1578 18M23.2829 13.6255C23.2829 13.6255 24.1579 13.8748 25.4705 15.1874C26.7831 16.5 27.0333 17.3751 27.0333 17.3751" stroke="#6366F1" stroke-width="1.5" stroke-linecap="round"/>
<path d="M24.4414 21.8523L24.9435 22.3295L24.4414 21.8532M24.5235 22.7716L24.9435 22.3286L23.9392 21.375L23.5192 21.8181L24.5235 22.7716ZM26.3273 22.1421L28.0904 23.1575L28.7818 21.9575L27.0177 20.9421L26.3273 22.1421ZM28.431 25.2621L27.1202 26.6421L28.1236 27.5966L29.4344 26.2157L28.431 25.2621ZM26.3309 27.0852C25.0063 27.2153 21.5493 27.1037 17.7978 23.1547L16.7944 24.1083C20.8828 28.4126 24.7829 28.6295 26.4666 28.4624L26.3309 27.0852ZM17.7978 23.1547C14.2199 19.3876 13.6199 16.2104 13.5451 14.8165L12.1623 14.8904C12.2546 16.5981 12.9783 20.091 16.7944 24.1083L17.7978 23.1547ZM19.068 17.0282L19.332 16.7495L18.3286 15.7959L18.0637 16.0747L19.068 17.0282ZM19.5406 13.2787L18.3757 11.6338L17.2449 12.4332L18.408 14.079L19.5397 13.2796M14.435 11.2784L12.9876 12.8042L13.9919 13.7578L15.4412 12.2319L14.4368 11.2784M18.5668 16.5519C18.4006 16.3918 18.2329 16.2334 18.0637 16.0766L18.0618 16.0784L18.0591 16.0812C18.0429 16.0983 18.0275 16.1162 18.0129 16.1347C17.9224 16.2545 17.8508 16.3874 17.8006 16.5289C17.7101 16.7827 17.6621 17.1187 17.7231 17.5378C17.8431 18.3612 18.3831 19.4679 19.7927 20.9532L20.797 19.9987C19.4788 18.6113 19.1539 17.7575 19.0929 17.3366C19.0634 17.1335 19.0929 17.0273 19.1049 16.9932L19.1123 16.9756C19.1048 16.9878 19.0961 16.9992 19.0865 17.0098C19.0811 17.016 19.0755 17.0222 19.0699 17.0282C19.0699 17.0282 19.068 17.0282 18.5668 16.5519ZM19.7927 20.9523C21.1985 22.4329 22.2601 23.0144 23.0696 23.1464C23.486 23.2138 23.8229 23.1593 24.0777 23.0587C24.2188 23.0033 24.3501 22.9254 24.4663 22.828C24.4776 22.8178 24.4887 22.8073 24.4995 22.7966L24.5124 22.7836C24.5146 22.7818 24.5168 22.78 24.5189 22.7781L24.5217 22.7753L24.5226 22.7735C24.5226 22.7735 24.5244 22.7726 24.0223 22.2953C23.5201 21.819 23.521 21.8181 23.521 21.8172L23.5229 21.8163L23.5247 21.8135C23.5263 21.812 23.5278 21.8104 23.5294 21.8089L23.5386 21.7996C23.5494 21.7892 23.5608 21.7793 23.5727 21.7701C23.582 21.7646 23.581 21.7664 23.569 21.771C23.5506 21.7784 23.4675 21.808 23.2921 21.7793C22.921 21.7184 22.1198 21.3916 20.797 19.9987L19.7927 20.9523ZM18.3757 11.6338C17.4397 10.3101 15.5686 10.0858 14.4368 11.2784L15.4384 12.2319C15.9212 11.7242 16.7723 11.7639 17.2449 12.4332L18.3757 11.6338ZM13.5442 14.8175C13.5239 14.4482 13.6854 14.079 13.9919 13.7578L12.9876 12.8042C12.4928 13.3249 12.1153 14.0476 12.1605 14.8913L13.5442 14.8175ZM27.1184 26.643C26.8608 26.9144 26.5922 27.0603 26.33 27.0861L26.4657 28.4643C27.1553 28.3969 27.7147 28.0277 28.1236 27.5966L27.1193 26.644M19.3311 16.7504C20.2247 15.8098 20.2874 14.3384 19.5397 13.2796L18.4089 14.079C18.7985 14.6301 18.7385 15.3639 18.3277 15.7959L19.3302 16.7513M28.0885 23.1584C28.8464 23.595 28.995 24.6676 28.4292 25.263L29.4326 26.2166C30.6372 24.9483 30.2864 22.8261 28.7799 21.9584L28.0885 23.1584ZM24.9417 22.3295C25.2971 21.9547 25.8519 21.8707 26.3254 22.143L27.0159 20.943C26.0014 20.3596 24.7451 20.5276 23.9374 21.3769L24.9417 22.3295Z" fill="#4D4D4D"/>
</g>
<rect x="0.657715" y="0.5" width="41" height="38" rx="5.5" stroke="#EBEBEB"/>
<defs>
<clipPath id="clip0_523_2580">
<rect x="0.157715" width="42" height="39" rx="6" fill="white"/>
</clipPath>
</defs>
</svg>
