<svg width="67" height="60" viewBox="0 0 67 60" fill="none" xmlns="http://www.w3.org/2000/svg">
<path d="M0.828979 45.0823C1.14413 44.4419 1.67902 44.2942 2.35847 44.3C4.9086 44.326 7.45872 44.3116 10.1245 44.3116C10.1245 44.0131 10.1216 43.7495 10.1245 43.4829C10.2112 31.4005 10.298 19.3182 10.3876 7.23585C10.4107 4.01389 12.3913 1.3975 15.3895 0.658647C15.9996 0.50798 16.6501 0.45003 17.2805 0.45003C31.1876 0.438441 45.0947 0.438442 59.0018 0.444236C63.1711 0.447134 66.1549 3.44019 66.1665 7.61541C66.1751 10.536 66.1694 13.4538 66.1665 16.3744C66.1665 17.5942 65.8224 17.9419 64.6196 17.9448C61.4739 17.9477 58.3253 17.9448 55.1795 17.9448C54.9511 17.9448 54.7198 17.9448 54.4076 17.9448C54.4076 18.2664 54.4076 18.5359 54.4076 18.8053C54.4076 29.2477 54.4105 39.6901 54.4076 50.1296C54.4076 54.0499 52.7133 56.956 49.1917 58.7264C47.6882 59.4826 46.0575 59.555 44.4066 59.5521C32.8819 59.5405 21.3543 59.5898 9.82958 59.526C4.75247 59.5 1.49687 55.7304 0.944632 51.8913C0.930175 51.7928 0.869458 51.7029 0.828979 51.6073C0.828979 49.4314 0.828979 47.2554 0.828979 45.0823ZM54.2023 2.58545C53.9392 2.57096 53.7339 2.55358 53.5286 2.55358C41.5153 2.55358 29.502 2.55068 17.4857 2.55937C16.9595 2.55937 16.4131 2.59124 15.91 2.72453C13.727 3.30981 12.5069 4.95266 12.4867 7.35754C12.3884 19.5036 12.3045 31.6497 12.2178 43.7958C12.2178 43.9581 12.2496 44.1203 12.2698 44.3116C12.5705 44.3116 12.825 44.3116 13.0794 44.3116C21.097 44.3116 29.1116 44.3116 37.1292 44.3116C38.3117 44.3116 38.6384 44.6448 38.65 45.8269C38.6674 47.6378 38.5922 49.4545 38.731 51.2567C39.0866 55.884 44.2186 58.822 48.3648 56.759C51.0276 55.4349 52.2825 53.1777 52.2796 50.1905C52.2709 36.0828 52.2796 21.9781 52.2709 7.87039C52.2709 6.47672 52.5282 5.16128 53.2771 3.97043C53.5546 3.52422 53.8611 3.0954 54.2023 2.58545ZM3.03504 46.4673C3.03504 48.2492 2.86445 49.9732 3.07262 51.6479C3.46295 54.78 6.30798 57.4747 10.1476 57.4515C19.7409 57.3935 29.3314 57.4312 38.9247 57.4312C39.13 57.4312 39.3353 57.4109 39.5492 57.4022C39.5347 57.3153 39.5405 57.266 39.5203 57.2429C39.4364 57.1472 39.341 57.0632 39.2514 56.9734C37.8549 55.5768 36.8979 53.9224 36.6955 51.9521C36.5365 50.3904 36.5914 48.8055 36.5538 47.2322C36.548 46.9859 36.5538 46.7396 36.5538 46.4731C25.3182 46.4673 14.181 46.4673 3.03504 46.4673ZM54.4076 15.7659C57.6603 15.7659 60.8205 15.7659 63.9807 15.7659C64.0038 15.6732 64.0356 15.6124 64.0356 15.5544C64.0269 12.7004 64.0414 9.84355 63.998 6.98957C63.9778 5.73787 63.4082 4.6832 62.4859 3.85743C60.9853 2.50722 59.236 2.1827 57.3943 2.96791C55.5641 3.74732 54.5377 5.21343 54.4336 7.23005C54.3729 8.37744 54.4105 9.53063 54.4105 10.6809C54.4047 12.3585 54.4076 14.0391 54.4076 15.7659Z" fill="black"/>
<path d="M40.5247 16.5416C40.5247 18.1034 40.6841 19.6885 40.4856 21.224C40.2004 23.4338 39.0624 25.2174 37.284 26.5018C35.6958 27.649 34.102 28.7846 32.5083 29.9231C31.7841 30.4398 31.5016 30.4398 30.7803 29.926C29.2032 28.8021 27.615 27.6928 26.052 26.5456C23.8151 24.9021 22.6687 22.6281 22.6268 19.776C22.5932 17.4174 22.6352 15.0558 22.61 12.6971C22.6016 12.0023 22.8672 11.5878 23.4572 11.29C25.9318 10.0406 28.398 8.77079 30.8613 7.4922C31.3842 7.22072 31.8596 7.21488 32.3824 7.48636C34.8626 8.77371 37.3483 10.0494 39.8397 11.3163C40.4017 11.6024 40.6701 12.0081 40.6561 12.6796C40.6282 13.9669 40.6478 15.2543 40.6478 16.5416C40.6086 16.5416 40.5667 16.5416 40.5247 16.5416ZM24.6707 16.9007C24.6707 17.8669 24.654 18.8332 24.6735 19.7965C24.7183 21.9129 25.5599 23.5972 27.232 24.8087C28.5657 25.7749 29.9135 26.7178 31.2388 27.6928C31.5156 27.8972 31.7058 27.9147 31.9938 27.7016C33.4058 26.6653 34.857 25.6874 36.255 24.6335C37.6447 23.5856 38.4752 22.126 38.5535 20.3424C38.6541 18.0508 38.6038 15.7534 38.5898 13.4561C38.5898 13.2634 38.3941 12.9861 38.2207 12.8927C36.1516 11.8009 34.0741 10.7266 31.9854 9.67573C31.7869 9.57648 31.4625 9.58816 31.2612 9.68741C29.1893 10.7296 27.1285 11.7892 25.0818 12.8781C24.886 12.9831 24.6987 13.3159 24.6903 13.5495C24.6484 14.6704 24.6707 15.7855 24.6707 16.9007Z" fill="#6366F1"/>
<path d="M31.9402 40.2653C27.9133 40.2653 23.8865 40.2653 19.8597 40.2653C19.6695 40.2653 19.4763 40.2754 19.289 40.2552C18.6779 40.1922 18.2743 39.8419 18.2542 39.3681C18.234 38.8691 18.6289 38.4911 19.2746 38.418C19.4821 38.3928 19.6983 38.4029 19.9087 38.4029C27.9422 38.4029 35.9756 38.4029 44.0062 38.4054C44.3002 38.4054 44.6029 38.418 44.8854 38.4785C45.3783 38.5818 45.6291 38.8943 45.6348 39.3303C45.6377 39.7663 45.3898 40.0788 44.8998 40.1922C44.6375 40.2527 44.3579 40.2628 44.0841 40.2628C40.0371 40.2653 35.9872 40.2653 31.9402 40.2653Z" fill="#6366F1"/>
<path d="M31.9271 33.4257C35.9745 33.4257 40.0249 33.4257 44.0724 33.4257C44.3059 33.4257 44.5452 33.4104 44.77 33.4512C45.312 33.5481 45.6349 33.8464 45.6349 34.3488C45.6349 34.8435 45.3408 35.1597 44.7815 35.2464C44.5538 35.2821 44.3174 35.2872 44.0868 35.2872C35.989 35.2898 27.894 35.2898 19.7962 35.2898C19.7529 35.2898 19.7126 35.2898 19.6693 35.2898C18.7353 35.277 18.2366 34.9404 18.2539 34.3335C18.2712 33.7419 18.7497 33.4282 19.6578 33.4282C23.7456 33.4257 27.8363 33.4257 31.9271 33.4257Z" fill="#6366F1"/>
<path d="M30.5997 19.6967C31.6899 18.5512 32.675 17.5072 33.6711 16.4749C33.8565 16.2835 34.0779 16.0051 34.2909 15.9993C34.6562 15.9877 35.0934 16.0573 35.3839 16.2719C35.7381 16.5358 35.7547 17.0113 35.5278 17.4289C35.4282 17.6116 35.2926 17.774 35.1487 17.9248C33.9616 19.1776 32.7718 20.4304 31.5737 21.6744C30.8764 22.3994 30.3867 22.4023 29.7004 21.6889C29.1221 21.0887 28.5466 20.4884 27.9877 19.8707C27.4785 19.3052 27.4592 18.673 27.9102 18.2351C28.3391 17.8175 28.9174 17.861 29.4265 18.383C29.8194 18.7861 30.1764 19.2182 30.5997 19.6967Z" fill="#6366F1"/>
</svg>
