<svg width="47" height="72" viewBox="0 0 47 72" fill="none" xmlns="http://www.w3.org/2000/svg">
<path d="M23.5 45.3333C35.7423 45.3333 45.6666 35.409 45.6666 23.1667C45.6666 10.9244 35.7423 1 23.5 1C11.2577 1 1.33331 10.9244 1.33331 23.1667C1.33331 35.409 11.2577 45.3333 23.5 45.3333Z" stroke="black" stroke-width="2" stroke-linecap="round" stroke-linejoin="round"/>
<path d="M11.1193 41.8655L7.16663 71.0002L23.5 61.4059L39.8333 71.0002L35.8806 41.8335" stroke="black" stroke-width="2" stroke-linecap="round" stroke-linejoin="round"/>
<path d="M23.5 12.6665L26.7445 19.5782L34 20.6933L28.75 26.0703L29.989 33.6665L23.5 30.0782L17.011 33.6665L18.25 26.0703L13 20.6933L20.2555 19.5782L23.5 12.6665Z" stroke="#6366F1" stroke-width="2" stroke-linecap="round" stroke-linejoin="round"/>
</svg>
