<svg width="48" height="48" viewBox="0 0 48 48" fill="none" xmlns="http://www.w3.org/2000/svg">
<rect width="48" height="48" rx="4" fill="#6366F1"/>
<path d="M24.1335 36C20.7465 36 17.8772 34.8383 15.5256 32.5149C13.1752 30.1903 12 27.3537 12 24.0051C12 20.6566 13.1752 17.8189 15.5256 15.492C17.8772 13.164 20.7465 12 24.1335 12C26.1938 12 28.1225 12.484 29.9194 13.452C31.7175 14.42 33.1665 15.7714 34.2666 17.5063V12H36V20.9657H26.9346V19.2514H33.348C32.4455 17.5429 31.1755 16.1926 29.5381 15.2006C27.9029 14.2097 26.1014 13.7143 24.1335 13.7143C21.2445 13.7143 18.789 14.7143 16.7667 16.7143C14.7445 18.7143 13.7334 21.1429 13.7334 24C13.7334 26.8571 14.7445 29.2857 16.7667 31.2857C18.789 33.2857 21.2445 34.2857 24.1335 34.2857C26.3579 34.2857 28.3657 33.6571 30.1569 32.4C31.948 31.1429 33.2047 29.4857 33.9269 27.4286H35.766C35.0022 29.9954 33.5502 32.0657 31.4101 33.6394C29.27 35.2131 26.8444 36 24.1335 36Z" fill="white"/>
</svg>
