<svg width="30" height="30" viewBox="0 0 30 30" fill="none" xmlns="http://www.w3.org/2000/svg">
<rect width="30" height="30" rx="4" fill="#E1E2FF"/>
<path d="M20 9V7H9V9H12.5C13.802 9 14.901 9.838 15.315 11H9V13H15.315C15.1097 13.5832 14.7289 14.0886 14.2249 14.4467C13.7208 14.8048 13.1183 14.9981 12.5 15H9V17.414L14.586 23H17.414L11.414 17H12.5C13.652 16.9985 14.7682 16.5998 15.6604 15.8711C16.5526 15.1424 17.1663 14.1284 17.398 13H20V11H17.398C17.2447 10.2722 16.9288 9.58848 16.474 9H20Z" fill="#6366F1"/>
</svg>
