<svg width="25" height="24" viewBox="0 0 25 24" fill="none" xmlns="http://www.w3.org/2000/svg">
<path d="M24.2266 0.147321C24.5181 0.361607 24.6373 0.647321 24.5843 1.00446L21.1929 21.5759C21.1488 21.8348 21.0074 22.0357 20.769 22.1786C20.6453 22.25 20.5085 22.2857 20.3583 22.2857C20.2612 22.2857 20.1552 22.2634 20.0404 22.2188L14.0392 19.7411L10.8333 23.692C10.6744 23.8973 10.458 24 10.1842 24C10.0694 24 9.97223 23.9821 9.89275 23.9464C9.72495 23.8839 9.59026 23.779 9.4887 23.6317C9.38713 23.4844 9.33635 23.3214 9.33635 23.1429V18.4688L20.7822 4.28571L6.6206 16.6741L1.38782 14.5045C1.06105 14.3795 0.884412 14.1339 0.857917 13.7679C0.840254 13.4107 0.981561 13.1473 1.28184 12.9777L23.3258 0.120536C23.4582 0.0401786 23.5996 0 23.7497 0C23.9263 0 24.0853 0.0491071 24.2266 0.147321Z" fill="#6366F1"/>
</svg>
