<svg width="6" height="16" viewBox="0 0 6 16" fill="none" xmlns="http://www.w3.org/2000/svg">
<path d="M3.0223 8.875C3.6144 8.875 4.0944 8.48325 4.0944 8C4.0944 7.51675 3.6144 7.125 3.0223 7.125C2.43019 7.125 1.9502 7.51675 1.9502 8C1.9502 8.48325 2.43019 8.875 3.0223 8.875Z" stroke="#4B5171" stroke-width="2" stroke-linecap="round" stroke-linejoin="round"/>
<path d="M3.0223 2.75C3.6144 2.75 4.0944 2.35825 4.0944 1.875C4.0944 1.39175 3.6144 1 3.0223 1C2.43019 1 1.9502 1.39175 1.9502 1.875C1.9502 2.35825 2.43019 2.75 3.0223 2.75Z" stroke="#4B5171" stroke-width="2" stroke-linecap="round" stroke-linejoin="round"/>
<path d="M3.0223 15C3.6144 15 4.0944 14.6082 4.0944 14.125C4.0944 13.6418 3.6144 13.25 3.0223 13.25C2.43019 13.25 1.9502 13.6418 1.9502 14.125C1.9502 14.6082 2.43019 15 3.0223 15Z" stroke="#4B5171" stroke-width="2" stroke-linecap="round" stroke-linejoin="round"/>
</svg>
