<svg width="20" height="21" viewBox="0 0 20 21" fill="none" xmlns="http://www.w3.org/2000/svg">
<rect y="0.0625" width="20" height="20" rx="4" fill="#6366F1"/>
<path d="M15.994 8.46869C16.0047 8.39353 16.001 8.3169 15.9833 8.24321C15.9655 8.16952 15.934 8.1002 15.8905 8.03924C15.8471 7.97827 15.7925 7.92684 15.7299 7.88791C15.6674 7.84897 15.5981 7.82329 15.526 7.81233L12.396 7.33508L10.997 4.36122C10.9465 4.27032 10.8739 4.19487 10.7866 4.14244C10.6994 4.09001 10.6004 4.06244 10.4997 4.0625C10.399 4.06256 10.3 4.09024 10.2128 4.14278C10.1256 4.19531 10.0532 4.27084 10.0027 4.3618L8.60421 7.33508L5.47426 7.81233C5.37209 7.82781 5.27611 7.87277 5.19713 7.94213C5.11816 8.0115 5.05935 8.10251 5.02732 8.20489C4.9953 8.30727 4.99134 8.41695 5.0159 8.52155C5.04046 8.62616 5.09255 8.72152 5.1663 8.79688L7.43332 11.1155L6.89827 14.3881C6.88136 14.4943 6.89317 14.6033 6.93239 14.7029C6.97161 14.8025 7.03668 14.8888 7.12029 14.9519C7.20389 15.015 7.30272 15.0526 7.40567 15.0604C7.50861 15.0682 7.6116 15.0458 7.70305 14.9959L10.5001 13.4532L13.2966 14.9953C13.388 15.0458 13.491 15.0686 13.5941 15.0611C13.6972 15.0537 13.7963 15.0162 13.8801 14.9531C13.9639 14.89 14.0291 14.8037 14.0683 14.7039C14.1075 14.6042 14.1192 14.495 14.102 14.3887L13.5669 11.1155L15.8345 8.7963C15.9204 8.70811 15.9764 8.59309 15.994 8.46869ZM13.0757 10.8087C13.0438 10.8414 13.02 10.8817 13.0062 10.926C12.9924 10.9704 12.989 11.0175 12.9964 11.0635L13.5559 14.4846L10.6292 12.8708C10.5893 12.8492 10.5451 12.8379 10.5001 12.8379C10.4552 12.8379 10.4109 12.8492 10.3711 12.8708L7.44439 14.4852L8.00381 11.0635C8.01121 11.0175 8.00788 10.9704 7.99409 10.926C7.9803 10.8817 7.95647 10.8414 7.9246 10.8087L5.55401 8.38376L8.82853 7.88455C8.87305 7.87764 8.9153 7.85957 8.95167 7.8319C8.98803 7.80422 9.01743 7.76777 9.03734 7.72566L10.5001 4.61661L11.9624 7.72624C11.9823 7.76842 12.0118 7.80492 12.0483 7.8326C12.0847 7.86027 12.1271 7.8783 12.1717 7.88513L15.4468 8.38376L13.0757 10.8087Z" fill="white"/>
</svg>
