<svg width="27" height="30" viewBox="0 0 27 30" fill="none" xmlns="http://www.w3.org/2000/svg">
<path d="M22.0565 14.3571V6.32014C22.0566 6.21865 22.0362 6.11815 21.9965 6.02438C21.9567 5.93062 21.8985 5.84543 21.825 5.77371L17.6831 1.72629C17.5352 1.58157 17.3345 1.50018 17.1252 1.5H1.79429C1.58492 1.5 1.38412 1.58128 1.23607 1.72595C1.08803 1.87062 1.00485 2.06683 1.00485 2.27143V26.4429C1.00485 26.6475 1.08803 26.8437 1.23607 26.9883C1.38412 27.133 1.58492 27.2143 1.79429 27.2143H12.8464M6.26778 11.7857H16.7936M6.26778 6.64286H11.5307M6.26778 16.9286H10.215" stroke="#4D4D4D" stroke-width="1.5" stroke-linecap="round" stroke-linejoin="round"/>
<path d="M16.7939 1.5V5.87143C16.7939 6.07602 16.8771 6.27224 17.0251 6.41691C17.1732 6.56158 17.374 6.64286 17.5834 6.64286H22.0568M22.0463 18.375L25.4093 19.2094C25.7593 19.2969 26.0053 19.608 25.9948 19.9603C25.7685 27.3634 21.399 28.5 21.399 28.5C21.399 28.5 17.0294 27.3634 16.8031 19.9603C16.7991 19.7888 16.8548 19.621 16.9612 19.4846C17.0676 19.3481 17.2183 19.2511 17.3886 19.2094L20.7516 18.375C21.1766 18.2696 21.6213 18.2696 22.0463 18.375Z" stroke="#ED462F" stroke-width="1.5" stroke-linecap="round" stroke-linejoin="round"/>
</svg>
