<svg width="31" height="20" viewBox="0 0 31 20" fill="none" xmlns="http://www.w3.org/2000/svg">
<path d="M15.0904 0.250818C19.3168 0.250818 23.5432 0.24918 27.7696 0.25163C28.9925 0.252447 29.9136 0.989201 30.1375 2.14415C30.176 2.34263 30.1769 2.5501 30.1769 2.75348C30.1785 7.58238 30.1793 12.4113 30.1777 17.2402C30.1769 18.7733 29.1984 19.7494 27.6687 19.7494C19.2775 19.7502 10.8854 19.7502 2.49409 19.7494C0.959526 19.7494 0.00155292 18.7986 0.00155292 17.2696C-0.00090762 12.4301 -8.74388e-05 7.59137 0.00155292 2.75185C0.00237311 1.19748 0.951323 0.250817 2.50311 0.25C6.69916 0.250817 10.8952 0.250818 15.0904 0.250818ZM15.0568 18.8199C19.2422 18.8199 23.4276 18.8199 27.613 18.8199C28.6808 18.8199 29.2427 18.2612 29.2427 17.1985C29.2427 12.3998 29.2427 7.60199 29.2427 2.80331C29.2427 1.71615 28.7104 1.18278 27.6261 1.18278C19.2652 1.18278 10.9042 1.18278 2.54412 1.18278C1.47542 1.18278 0.936559 1.7186 0.936559 2.78125C0.935739 7.58973 0.935739 12.3982 0.936559 17.2067C0.936559 18.2881 1.47214 18.8191 2.56216 18.8191C6.72704 18.8199 10.8919 18.8199 15.0568 18.8199Z" fill="black"/>
<path d="M8.81621 16.4976C6.97979 16.4976 5.14337 16.4976 3.30778 16.4976C2.84288 16.4976 2.73452 16.4224 2.60713 15.9985C2.28286 14.9234 2.19104 13.8397 2.56163 12.7615C3.00916 11.4607 4.04649 10.7618 5.3692 10.3833C6.50745 10.0581 7.68127 9.99698 8.85923 10.0001C10.067 10.0032 11.2722 10.0605 12.4353 10.4209C14.3925 11.0282 15.4 12.3595 15.3165 14.313C15.2917 14.903 15.1345 15.4892 15.0212 16.0737C14.9624 16.377 14.7474 16.5016 14.4181 16.5C12.5503 16.4945 10.6832 16.4976 8.81621 16.4976ZM14.1857 15.5996C14.2378 15.3371 14.3031 15.0903 14.3321 14.8403C14.5521 12.9307 13.8647 11.6793 11.8198 11.1927C10.4218 10.8597 8.9982 10.866 7.57374 10.9451C6.71674 10.9929 5.87132 11.1167 5.07472 11.4451C4.13748 11.8306 3.50218 12.4786 3.36486 13.4479C3.28462 14.0105 3.33342 14.5966 3.38388 15.1679C3.42276 15.6036 3.46495 15.5996 3.93812 15.5996C7.22052 15.5996 10.5029 15.5996 13.7853 15.5996C13.9086 15.5996 14.0318 15.5996 14.1857 15.5996Z" fill="#6366F1"/>
<path d="M8.58834 9.53523C6.91177 9.53523 5.56573 8.1815 5.57131 6.50187C5.57688 4.8437 6.93009 3.49872 8.59232 3.49951C10.2689 3.50031 11.6149 4.85562 11.607 6.53525C11.599 8.20297 10.2593 9.53523 8.58834 9.53523ZM10.699 6.52969C10.7046 5.37549 9.76792 4.42558 8.60985 4.41048C7.45257 4.39537 6.47849 5.36197 6.48168 6.52333C6.48486 7.67515 7.43505 8.62426 8.58834 8.62585C9.74243 8.62744 10.6934 7.6831 10.699 6.52969Z" fill="#6366F1"/>
<path d="M22.0598 4.42849C20.6642 4.42849 19.2686 4.42849 17.873 4.42849C17.7821 4.42849 17.6905 4.4297 17.6005 4.42526C17.3377 4.41314 17.1926 4.33273 17.1796 4.20829C17.1658 4.08182 17.3126 4.00021 17.5599 3.97071C17.637 3.96142 17.7205 3.96506 17.8016 3.96506C20.6334 3.96465 23.4652 3.96465 26.2962 3.96506C26.387 3.96506 26.4819 3.96102 26.567 3.97273C26.8103 4.00627 26.949 4.08829 26.9263 4.21718C26.9052 4.33718 26.7625 4.4095 26.5192 4.42405C26.4195 4.43011 26.3173 4.42809 26.2159 4.42809C24.8308 4.42849 23.4449 4.42849 22.0598 4.42849Z" fill="#6366F1"/>
<path d="M20.92 6.75312C21.9416 6.75312 22.9641 6.75153 23.9858 6.75471C24.105 6.75471 24.2639 6.7396 24.3353 6.80482C24.4618 6.92094 24.6158 7.09751 24.6069 7.24068C24.5988 7.38305 24.4237 7.53895 24.285 7.64076C24.2039 7.70041 24.0507 7.67257 23.9299 7.67257C21.9165 7.67416 19.9032 7.67337 17.8898 7.67337C17.8193 7.67337 17.7479 7.67576 17.6774 7.67098C17.3758 7.6511 17.1795 7.47134 17.1787 7.21523C17.1779 6.9615 17.379 6.77221 17.6733 6.75312C17.7439 6.74834 17.8152 6.75153 17.8858 6.75153C18.8969 6.75312 19.908 6.75312 20.92 6.75312Z" fill="#6366F1"/>
<path d="M23.671 12.7888C24.5487 12.7888 25.4263 12.7884 26.3032 12.7892C26.4095 12.7892 26.547 12.7768 26.6166 12.8047C26.7487 12.8585 26.9198 12.9347 26.9284 13.006C26.9362 13.0773 26.7815 13.1618 26.6651 13.2252C26.6135 13.2535 26.4814 13.2491 26.386 13.2495C24.5917 13.2507 22.7981 13.2507 21.0037 13.2495C20.9084 13.2495 20.8068 13.2455 20.7177 13.2292C20.5082 13.1909 20.3808 13.1009 20.4457 12.9976C20.4934 12.9211 20.6481 12.8553 20.7818 12.8019C20.8451 12.7768 20.9701 12.7892 21.067 12.7892C21.9361 12.7884 22.8036 12.7888 23.671 12.7888Z" fill="#6366F1"/>
<path d="M20.668 15.5722C21.627 15.5722 22.5852 15.5705 23.5441 15.573C23.9266 15.5738 24.143 15.7436 24.143 16.0322C24.143 16.3224 23.9233 16.4986 23.5466 16.4986C21.6187 16.5003 19.6908 16.5003 17.7638 16.4986C17.3954 16.4986 17.1699 16.3079 17.179 16.0192C17.1881 15.7403 17.3979 15.5738 17.7605 15.573C18.7294 15.5697 19.6991 15.5722 20.668 15.5722Z" fill="#6366F1"/>
<path d="M20.2054 10.4634C19.4747 10.4634 18.7432 10.4634 18.0125 10.4634C17.9606 10.4634 17.9078 10.4634 17.8558 10.4634C17.4193 10.461 17.1847 10.303 17.1788 10.0069C17.173 9.70839 17.4118 9.53839 17.8399 9.536C17.9757 9.5352 18.1114 9.536 18.2472 9.536C19.5836 9.536 20.9209 9.536 22.2574 9.536C22.3203 9.536 22.3831 9.536 22.4451 9.536C22.973 9.536 23.2085 9.67647 23.2143 9.99253C23.2202 10.3126 22.9789 10.4634 22.4602 10.4642C21.7094 10.4634 20.9578 10.4634 20.2054 10.4634Z" fill="#6366F1"/>
<path d="M25.5629 10.4606C25.2565 10.4606 24.9501 10.4685 24.6445 10.459C24.3333 10.4495 24.1361 10.2551 24.1433 9.98846C24.1504 9.73294 24.3412 9.54646 24.6381 9.54249C25.2407 9.53376 25.8432 9.53297 26.4458 9.54249C26.7451 9.54725 26.9272 9.73453 26.9288 9.99719C26.9304 10.2598 26.749 10.4455 26.4521 10.4582C26.156 10.4701 25.8599 10.4606 25.5629 10.4606Z" fill="#6366F1"/>
<path d="M18.1092 13.2481C17.9478 13.2481 17.7857 13.2537 17.626 13.2469C17.3569 13.2349 17.1599 13.1313 17.1801 13.0109C17.2028 12.8798 17.3561 12.7981 17.626 12.7921C17.9478 12.785 18.2713 12.7834 18.5923 12.7921C18.8566 12.7993 19.0187 12.8766 19.035 13.0109C19.0504 13.1357 18.8663 13.2345 18.5923 13.2469C18.4326 13.2541 18.2705 13.2481 18.1092 13.2481Z" fill="#6366F1"/>
</svg>
