<svg width="13" height="13" viewBox="0 0 13 13" fill="none" xmlns="http://www.w3.org/2000/svg">
<path d="M12.3555 4.83213C12.2778 4.6634 12.1091 4.55526 11.9234 4.55518H10.1379C8.4541 4.55518 7.21847 2.97296 7.6265 1.33932C7.67894 1.12568 7.57811 0.903942 7.38264 0.803037C7.18718 0.702132 6.94802 0.748366 6.80424 0.914855L1.0941 7.57688C0.973475 7.71791 0.945841 7.9162 1.02331 8.08484C1.10078 8.25347 1.26922 8.36169 1.45479 8.36205H3.24025C4.92407 8.36205 6.15971 9.94427 5.75167 11.5779C5.69846 11.7919 5.7993 12.0145 5.99531 12.1156C6.06253 12.1509 6.13734 12.1692 6.21324 12.1689C6.35201 12.1686 6.48374 12.1078 6.57393 12.0024L12.2841 5.34034C12.405 5.19938 12.4329 5.00094 12.3555 4.83213Z" fill="#F59E0B"/>
</svg>
