<svg width="245" height="362" viewBox="0 0 245 362" fill="none" xmlns="http://www.w3.org/2000/svg">
<g filter="url(#filter0_f_216_4797)">
<path d="M48.0131 209.468C126.575 168.015 224.024 198.394 265.477 276.956V276.956C306.931 355.518 277.004 453.107 198.442 494.56V494.56C119.88 536.014 22.4315 505.635 -19.022 427.072V427.072C-60.4754 348.51 -30.5492 250.922 48.0131 209.468V209.468Z" fill="url(#paint0_radial_216_4797)"/>
</g>
<g style="mix-blend-mode:hue" filter="url(#filter1_f_216_4797)">
<path d="M47.6368 489.515C-7.99432 452.691 -23.1014 377.531 13.7228 321.9V321.9C50.547 266.269 125.636 250.813 181.267 287.637V287.637C236.898 324.461 252.005 399.621 215.181 455.252V455.252C178.357 510.883 103.268 526.339 47.6368 489.515V489.515Z" fill="url(#paint1_radial_216_4797)"/>
</g>
<g style="mix-blend-mode:lighten" filter="url(#filter2_f_216_4797)">
<rect x="-4.91797" y="173.186" width="278.892" height="278.567" rx="139.284" transform="rotate(35.0235 -4.91797 173.186)" fill="url(#paint2_radial_216_4797)"/>
</g>
<g style="mix-blend-mode:lighten" filter="url(#filter3_f_216_4797)">
<rect x="-48.6694" y="247.062" width="224.262" height="224.001" rx="112.001" transform="rotate(-2.57313 -48.6694 247.062)" fill="url(#paint3_radial_216_4797)"/>
</g>
<g style="mix-blend-mode:overlay" filter="url(#filter4_f_216_4797)">
<path d="M149.724 206.275C192.666 184.867 244.912 202.486 266.32 245.427V245.427C287.728 288.369 270.352 340.696 227.411 362.104V362.104C184.469 383.512 132.223 365.894 110.815 322.952V322.952C89.407 280.011 106.783 227.683 149.724 206.275V206.275Z" fill="url(#paint4_radial_216_4797)"/>
</g>
<g style="mix-blend-mode:lighten" filter="url(#filter5_f_216_4797)">
<path d="M166.812 212.335C203.784 233.493 216.525 280.756 195.367 317.728V317.728C174.209 354.701 127.005 367.66 90.0325 346.502V346.502C53.0602 325.344 40.32 278.081 61.478 241.108V241.108C82.636 204.136 129.84 191.177 166.812 212.335V212.335Z" fill="url(#paint5_radial_216_4797)"/>
</g>
<defs>
<filter id="filter0_f_216_4797" x="-228.309" y="0.282257" width="703.073" height="703.465" filterUnits="userSpaceOnUse" color-interpolation-filters="sRGB">
<feFlood flood-opacity="0" result="BackgroundImageFix"/>
<feBlend mode="normal" in="SourceGraphic" in2="BackgroundImageFix" result="shape"/>
<feGaussianBlur stdDeviation="95.3159" result="effect1_foregroundBlur_216_4797"/>
</filter>
<filter id="filter1_f_216_4797" x="-191.188" y="82.8339" width="611.28" height="611.485" filterUnits="userSpaceOnUse" color-interpolation-filters="sRGB">
<feFlood flood-opacity="0" result="BackgroundImageFix"/>
<feBlend mode="normal" in="SourceGraphic" in2="BackgroundImageFix" result="shape"/>
<feGaussianBlur stdDeviation="92.3931" result="effect1_foregroundBlur_216_4797"/>
</filter>
<filter id="filter2_f_216_4797" x="-290.566" y="47.4282" width="639.813" height="639.697" filterUnits="userSpaceOnUse" color-interpolation-filters="sRGB">
<feFlood flood-opacity="0" result="BackgroundImageFix"/>
<feBlend mode="normal" in="SourceGraphic" in2="BackgroundImageFix" result="shape"/>
<feGaussianBlur stdDeviation="90.261" result="effect1_foregroundBlur_216_4797"/>
</filter>
<filter id="filter3_f_216_4797" x="-224.278" y="61.3911" width="585.309" height="585.05" filterUnits="userSpaceOnUse" color-interpolation-filters="sRGB">
<feFlood flood-opacity="0" result="BackgroundImageFix"/>
<feBlend mode="normal" in="SourceGraphic" in2="BackgroundImageFix" result="shape"/>
<feGaussianBlur stdDeviation="90.261" result="effect1_foregroundBlur_216_4797"/>
</filter>
<filter id="filter4_f_216_4797" x="-55.7563" y="39.7529" width="488.647" height="488.873" filterUnits="userSpaceOnUse" color-interpolation-filters="sRGB">
<feFlood flood-opacity="0" result="BackgroundImageFix"/>
<feBlend mode="normal" in="SourceGraphic" in2="BackgroundImageFix" result="shape"/>
<feGaussianBlur stdDeviation="78.7046" result="effect1_foregroundBlur_216_4797"/>
</filter>
<filter id="filter5_f_216_4797" x="-130.965" y="19.9463" width="518.775" height="518.944" filterUnits="userSpaceOnUse" color-interpolation-filters="sRGB">
<feFlood flood-opacity="0" result="BackgroundImageFix"/>
<feBlend mode="normal" in="SourceGraphic" in2="BackgroundImageFix" result="shape"/>
<feGaussianBlur stdDeviation="91.1118" result="effect1_foregroundBlur_216_4797"/>
</filter>
<radialGradient id="paint0_radial_216_4797" cx="0" cy="0" r="1" gradientUnits="userSpaceOnUse" gradientTransform="translate(154.576 303.389) rotate(144.531) scale(213.152 213.596)">
<stop stop-color="#4BD4FF"/>
<stop offset="1" stop-color="#D04BFF" stop-opacity="0"/>
</radialGradient>
<radialGradient id="paint1_radial_216_4797" cx="0" cy="0" r="1" gradientUnits="userSpaceOnUse" gradientTransform="translate(102.094 437.93) rotate(8.70865) scale(114.406 114.644)">
<stop stop-color="#C7BEFF"/>
<stop offset="1" stop-color="#9BFFAB"/>
</radialGradient>
<radialGradient id="paint2_radial_216_4797" cx="0" cy="0" r="1" gradientUnits="userSpaceOnUse" gradientTransform="translate(190.24 250.051) rotate(83.176) scale(130.922 153.505)">
<stop offset="0.447917" stop-color="#FF4D4D"/>
<stop offset="1" stop-color="#FF0000" stop-opacity="0"/>
</radialGradient>
<radialGradient id="paint3_radial_216_4797" cx="0" cy="0" r="1" gradientUnits="userSpaceOnUse" gradientTransform="translate(108.261 308.872) rotate(75.3715) scale(83.8473 69.1866)">
<stop stop-color="#64FFFF"/>
<stop offset="0.572917" stop-color="#00FFC2" stop-opacity="0.58"/>
<stop offset="1" stop-color="#00FFC2" stop-opacity="0"/>
</radialGradient>
<radialGradient id="paint4_radial_216_4797" cx="0" cy="0" r="1" gradientUnits="userSpaceOnUse" gradientTransform="translate(162.271 258.744) rotate(128.709) scale(82.2823 82.4537)">
<stop offset="0.197917" stop-color="#FFD337"/>
<stop offset="1" stop-color="#FFFAE1" stop-opacity="0.42"/>
</radialGradient>
<radialGradient id="paint5_radial_216_4797" cx="0" cy="0" r="1" gradientUnits="userSpaceOnUse" gradientTransform="translate(128.422 279.418) rotate(-150.219) scale(77.1309 77.2916)">
<stop stop-color="#7E5EFF"/>
<stop offset="1" stop-color="#CD03FF" stop-opacity="0.6"/>
</radialGradient>
</defs>
</svg>
