<svg width="24" height="24" viewBox="0 0 24 24" fill="none" xmlns="http://www.w3.org/2000/svg">
<g clip-path="url(#clip0_195_4014)">
<path d="M12 17.25L10.3958 16.4902C9.75499 16.1848 9.21359 15.7045 8.83395 15.1047C8.4543 14.5049 8.25188 13.8101 8.25 13.1002V8.25H15.75V13.101C15.7482 13.8109 15.5458 14.5057 15.1662 15.1055C14.7865 15.7053 14.2451 16.1856 13.6042 16.491L12 17.25ZM9.75 9.75V13.101C9.75115 13.5267 9.87267 13.9435 10.1005 14.3031C10.3284 14.6627 10.6533 14.9506 11.0378 15.1335L12 15.5895L12.9623 15.1343C13.3467 14.9512 13.6716 14.6631 13.8994 14.3034C14.1273 13.9437 14.2488 13.5268 14.25 13.101V9.75H9.75ZM3.09 13.242C3.30444 13.0971 3.47773 12.8991 3.59301 12.6673C3.70829 12.4356 3.76164 12.1779 3.74788 11.9195C3.73411 11.661 3.65369 11.4105 3.51445 11.1923C3.3752 10.9741 3.18186 10.7957 2.95324 10.6743C2.72461 10.553 2.46847 10.4929 2.20973 10.4998C1.95098 10.5068 1.69844 10.5805 1.47666 10.714C1.25487 10.8474 1.07139 11.036 0.944058 11.2613C0.816726 11.4867 0.749873 11.7412 0.75 12C0.75 12.5918 1.095 13.098 1.593 13.3425C1.84171 15.3181 2.64916 17.1816 3.92047 18.7141C5.19177 20.2466 6.8741 21.3844 8.76975 21.9938L9.23025 20.5658C7.62038 20.0482 6.18968 19.086 5.10333 17.7901C4.01698 16.4942 3.31852 14.9175 3.09 13.242ZM21.9945 15.231L20.5665 14.769C20.0491 16.379 19.0869 17.8099 17.791 18.8964C16.4951 19.9828 14.9183 20.6807 13.2428 20.9093C13.0977 20.695 12.8997 20.5218 12.668 20.4067C12.4363 20.2916 12.1787 20.2383 11.9204 20.2521C11.662 20.266 11.4116 20.3464 11.1935 20.4856C10.9754 20.6248 10.797 20.8181 10.6757 21.0466C10.5543 21.2751 10.4942 21.5312 10.501 21.7898C10.5079 22.0485 10.5816 22.301 10.7149 22.5227C10.8482 22.7445 11.0366 22.928 11.2617 23.0555C11.4869 23.1829 11.7413 23.2499 12 23.25C12.5918 23.25 13.098 22.905 13.3425 22.407C15.318 22.1583 17.1814 21.3509 18.7139 20.0797C20.2464 18.8086 21.385 17.1265 21.9945 15.231ZM22.407 10.6575C22.1583 8.68192 21.3508 6.81837 20.0795 5.28587C18.8082 3.75337 17.1259 2.61559 15.2302 2.00625L14.7698 3.43425C16.3796 3.95176 17.8103 4.914 18.8967 6.2099C19.983 7.5058 20.6807 9.0825 20.9093 10.758C20.6949 10.903 20.5218 11.1011 20.4067 11.3328C20.2915 11.5646 20.2383 11.8222 20.2522 12.0806C20.266 12.339 20.3465 12.5894 20.4858 12.8075C20.625 13.0256 20.8183 13.204 21.0469 13.3253C21.2755 13.4466 21.5316 13.5066 21.7903 13.4997C22.049 13.4927 22.3015 13.419 22.5232 13.2856C22.745 13.1522 22.9284 12.9637 23.0558 12.7384C23.1831 12.5132 23.25 12.2588 23.25 12C23.2497 11.7198 23.1705 11.4453 23.0216 11.2079C22.8726 10.9705 22.6599 10.7798 22.4078 10.6575M12 0.75C11.4082 0.75 10.902 1.095 10.6575 1.593C8.68204 1.84174 6.8186 2.64911 5.28613 3.92026C3.75365 5.19142 2.61579 6.87354 2.00625 8.769L3.43425 9.231C3.95164 7.62099 4.91383 6.19013 6.20974 5.10364C7.50565 4.01715 9.08241 3.31933 10.758 3.09075C10.903 3.30506 11.1011 3.4782 11.3328 3.59334C11.5646 3.70848 11.8222 3.76171 12.0806 3.74785C12.339 3.73399 12.5894 3.65351 12.8075 3.51425C13.0256 3.37498 13.204 3.18165 13.3253 2.95306C13.4466 2.72447 13.5066 2.46839 13.4997 2.2097C13.4927 1.95102 13.419 1.69853 13.2856 1.47679C13.1522 1.25504 12.9637 1.07157 12.7384 0.944221C12.5132 0.816868 12.2588 0.74996 12 0.75Z" fill="white"/>
</g>
<defs>
<clipPath id="clip0_195_4014">
<rect width="24" height="24" fill="white"/>
</clipPath>
</defs>
</svg>
