<svg width="24" height="24" viewBox="0 0 24 24" fill="none" xmlns="http://www.w3.org/2000/svg">
<path d="M18.8931 7.93632C19.6469 9.21621 20.0296 10.6806 19.9984 12.1657C19.9672 13.6507 19.5234 15.0977 18.7165 16.3449C17.9097 17.592 16.7717 18.5899 15.4299 19.2271C14.0881 19.8642 12.5955 20.1153 11.1191 19.9523M5.10708 16.0643C4.3533 14.7844 3.97058 13.32 4.00176 11.835C4.03295 10.35 4.4768 8.9029 5.28365 7.65578C6.0905 6.40867 7.2285 5.4107 8.57028 4.77359C9.91207 4.13647 11.4047 3.88535 12.8811 4.04832" stroke="white" strokeWidth="1.5" strokeLinecap="round" strokeLinejoin="round"/>
<path d="M16.243 7.75729C17.0241 8.53834 18.2904 8.53834 19.0714 7.75729C19.8525 6.97624 19.8525 5.70991 19.0714 4.92886C18.2904 4.14781 17.0241 4.14781 16.243 4.92886C15.462 5.70991 15.462 6.97624 16.243 7.75729Z" stroke="white" strokeWidth="1.5" strokeLinecap="round" strokeLinejoin="round"/>
<path d="M4.92905 19.0717C5.7101 19.8528 6.97643 19.8528 7.75748 19.0717C8.53852 18.2907 8.53852 17.0244 7.75748 16.2433C6.97643 15.4623 5.7101 15.4623 4.92905 16.2433C4.148 17.0244 4.148 18.2907 4.92905 19.0717Z" stroke="white" strokeWidth="1.5" strokeLinecap="round" strokeLinejoin="round"/>
<path d="M10.5858 13.4145C11.3668 14.1956 12.6332 14.1956 13.4142 13.4145C14.1953 12.6335 14.1953 11.3671 13.4142 10.5861C12.6332 9.80504 11.3668 9.80504 10.5858 10.5861C9.80474 11.3671 9.80474 12.6335 10.5858 13.4145Z" stroke="white" strokeWidth="1.5" strokeLinecap="round" strokeLinejoin="round"/>
</svg>
